<svg width="250" height="250" xmlns="http://www.w3.org/2000/svg">
 <title>islamic panel</title>

 <g>
  <title>Layer 1</title>
  <g id="LWPOLYLINE">
   <path id="svg_1" fill="#1B1B1B" d="m300.87,124.1l51.2,51.26l-51.2,51.26l0,72.48l-72.49,0l-51.31,51.26l-51.2,-51.26l-72.49,0l0,-72.48l-51.31,-51.26q25.67,-25.65 51.26,-51.26l0,-72.48l72.54,0l51.2,-51.26l51.26,51.26l72.54,0l0,72.48zm44.51,52.14l0,-1.76q-17,-16.93 -33.89,-33.89a9.77,9.77 0 0 1 0.8,1.81a8.37,8.37 0 0 1 0.35,3.58a14.06,14.06 0 0 1 -0.29,1.55a7.36,7.36 0 0 1 2.61,0.54a6.09,6.09 0 0 1 2.19,2.23a7.73,7.73 0 0 1 1.13,2.48a3.86,3.86 0 0 1 -0.19,2.52a4.89,4.89 0 0 1 -0.87,1.12a8.15,8.15 0 0 0 -1.66,-1.56a5.38,5.38 0 0 0 -3.13,-0.75a5.7,5.7 0 0 0 -3.37,1.2c-1.34,1.13 -1.89,3.07 -2.08,5a12.15,12.15 0 0 0 0.42,4.88l-2.79,0.57a28,28 0 0 1 -0.89,-5a22.54,22.54 0 0 1 0.3,-8.08c0.39,-1.51 1,-3 1.42,-4.53a14.5,14.5 0 0 0 -0.55,-8.16a10.85,10.85 0 0 0 -2.33,-3.86a7.8,7.8 0 0 0 -1.42,-1.14l-0.33,-0.19l0,39a4.29,4.29 0 0 1 0.94,-0.63a3.67,3.67 0 0 1 2.52,-0.26a6,6 0 0 1 1.59,0.86l0.47,-0.4l1.69,1.95l-1.69,2l-0.47,-0.4a6,6 0 0 1 -1.59,0.86a3.67,3.67 0 0 1 -2.52,-0.26a4.29,4.29 0 0 1 -0.94,-0.63l0,39l0.33,-0.19a7.8,7.8 0 0 0 1.42,-1.14a10.85,10.85 0 0 0 2.33,-3.86a14.5,14.5 0 0 0 0.55,-8.16c-0.37,-1.56 -1,-3 -1.42,-4.53a22.54,22.54 0 0 1 -0.3,-8.08a28,28 0 0 1 0.89,-5l2.79,0.57a12.15,12.15 0 0 0 -0.42,4.88c0.19,1.92 0.74,3.86 2.08,5a5.7,5.7 0 0 0 3.37,1.2a5.38,5.38 0 0 0 3.13,-0.75a8.15,8.15 0 0 0 1.66,-1.56a4.89,4.89 0 0 1 0.87,1.12a3.86,3.86 0 0 1 0.19,2.52a7.73,7.73 0 0 1 -1.13,2.48a6.09,6.09 0 0 1 -2.19,2.23a7.36,7.36 0 0 1 -2.61,0.54a14.06,14.06 0 0 1 0.29,1.55a8.37,8.37 0 0 1 -0.35,3.58a9.77,9.77 0 0 1 -0.8,1.81q16.95,-16.92 33.89,-33.86zm-44.57,44.57l4.44,-4.44a5.61,5.61 0 0 1 -3.61,0.89a4.16,4.16 0 0 1 -0.83,-0.25l0,3.8zm4.44,-86.46l-4.44,-4.44l0,3.8a4.16,4.16 0 0 1 0.83,-0.25a5.61,5.61 0 0 1 3.61,0.89zm-8.53,159.37l0,-47.94a10.1,10.1 0 0 1 -0.71,1.85a8.66,8.66 0 0 1 -2.28,2.78a15.75,15.75 0 0 1 -1.3,0.89a7.24,7.24 0 0 1 1.45,2.23a6.11,6.11 0 0 1 0,3.12a7.48,7.48 0 0 1 -1,2.56a3.87,3.87 0 0 1 -1.91,1.65a5,5 0 0 1 -1.41,0.17a8.25,8.25 0 0 0 -0.07,-2.28a5.4,5.4 0 0 0 -1.68,-2.74a5.71,5.71 0 0 0 -3.23,-1.54c-1.75,-0.15 -3.51,0.84 -5,2.06a12,12 0 0 0 -3.31,4.05l-2.68,-1a26.63,26.63 0 0 1 3.34,-5a22.9,22.9 0 0 1 5.93,-5.5c1.35,-0.79 2.85,-1.36 4.21,-2.2a14.44,14.44 0 0 0 5.38,-6.16a10.87,10.87 0 0 0 1.08,-4.38a7.33,7.33 0 0 0 -0.2,-1.81l-0.09,-0.36l-27.6,27.59a4.65,4.65 0 0 1 1.11,0.22a3.69,3.69 0 0 1 2,1.61a5.81,5.81 0 0 1 0.51,1.72l0.62,0.05l-0.19,2.57l0.86,3.13l1.84,0.41l-0.54,2.41l0.13,0.22l-2.52,1.5a14.51,14.51 0 0 0 -1.16,-1.79a16.26,16.26 0 0 0 -4.37,0.18a10.7,10.7 0 0 0 -5.62,3.86c-1.23,1.5 -2.21,3.25 -2.06,5a5.68,5.68 0 0 0 1.54,3.23a5.35,5.35 0 0 0 2.73,1.69a8.74,8.74 0 0 0 2.29,0.07a5,5 0 0 1 -0.18,1.4a3.78,3.78 0 0 1 -1.65,1.91a7.66,7.66 0 0 1 -2.55,1a6.11,6.11 0 0 1 -3.12,0a7,7 0 0 1 -2.24,-1.49c-0.29,0.45 -0.57,0.89 -0.89,1.3a8.51,8.51 0 0 1 -2.78,2.28a9.55,9.55 0 0 1 -1.86,0.72l47.94,0c-0.48,-0.08 -1,-0.17 -1.45,-0.3l2.69,-0.94zm0,-56.76l0,-6.28l-2.65,2.69a4.19,4.19 0 0 1 0.75,0.41a5.56,5.56 0 0 1 1.9,3.18zm0,-116.92l0,-6.28a5.56,5.56 0 0 1 -1.93,3.18a4.19,4.19 0 0 1 -0.75,0.41l2.68,2.69zm0,-15.1l0,-47.98l-2.65,-0.9c0.49,-0.13 1,-0.22 1.45,-0.3l-47.98,0a9.55,9.55 0 0 1 1.86,0.72a8.51,8.51 0 0 1 2.78,2.28c0.32,0.41 0.6,0.85 0.89,1.3a7,7 0 0 1 2.23,-1.46a6.11,6.11 0 0 1 3.12,0a7.66,7.66 0 0 1 2.55,1a3.78,3.78 0 0 1 1.65,1.91a5,5 0 0 1 0.18,1.4a8.74,8.74 0 0 0 -2.29,0.07a5.35,5.35 0 0 0 -2.73,1.69a5.68,5.68 0 0 0 -1.54,3.23c-0.15,1.75 0.83,3.5 2.06,5a10.7,10.7 0 0 0 5.62,3.86a16.26,16.26 0 0 0 4.37,0.18a14.51,14.51 0 0 0 1.16,-1.79l2.52,1.5l-0.13,0.22l0.54,2.41l-1.84,0.41l-0.86,3.13l0.19,2.57l-0.62,0.05a5.81,5.81 0 0 1 -0.51,1.72a3.69,3.69 0 0 1 -2,1.61a4.65,4.65 0 0 1 -1.11,0.22l27.6,27.59l0.09,-0.36a7.33,7.33 0 0 0 0.2,-1.81a10.87,10.87 0 0 0 -1.08,-4.38a14.44,14.44 0 0 0 -5.37,-6.17c-1.36,-0.84 -2.86,-1.41 -4.21,-2.2a22.9,22.9 0 0 1 -5.93,-5.5a26.63,26.63 0 0 1 -3.34,-5l2.68,-1a12,12 0 0 0 3.31,4c1.49,1.22 3.25,2.21 5,2.06a5.71,5.71 0 0 0 3.23,-1.54a5.4,5.4 0 0 0 1.68,-2.74a8.25,8.25 0 0 0 0.07,-2.28a5,5 0 0 1 1.41,0.17a3.87,3.87 0 0 1 1.91,1.65a7.48,7.48 0 0 1 1,2.56a6.11,6.11 0 0 1 0,3.12a7.24,7.24 0 0 1 -1.45,2.23a15.75,15.75 0 0 1 1.3,0.89a8.66,8.66 0 0 1 2.28,2.78a10.1,10.1 0 0 1 0.71,1.9l0,-0.02zm-4.2,118.22l0,-25.48l-6.61,-6.61l-7.12,7.12l0,19.28l-13.63,13.64l0,10.06l9.34,0l18.02,-18.01zm0,-31.34l0,-5.91l-1.45,0l-2.23,2.23l3.68,3.68zm0,-10.06l0,-12.8l-3.17,0l-3.44,-3.45l-3.45,3.45l-3.67,0l0,3.67l-2.72,2.73l2.73,2.73l0,3.67l3.67,0l3.45,3.45l3.44,-3.45l3.16,0zm0,-16.95l0,-5.91l-3.68,3.68l2.23,2.23l1.45,0zm0,-11.77l0,-25.48l-18,-18l-9.34,0l0,10.06l13.63,13.64l0,19.28l7.12,7.12l6.59,-6.62zm-11.77,11.77l2.22,-2.23l-4.18,-4.18l0,6.4l1.96,0.01zm2.22,23.33l-2.22,-2.23l-2,0l0,6.41l4.22,-4.18zm-8.33,27.61l0,-13.41l-4.64,4.62l-5,-2l3.42,8.27l-8.27,3.42l5,2l0,6.57l9.49,-9.47zm0,-19.28l0,-10.56l-9.13,0l-5.9,5.9l3.19,7.7l6.23,2.58l5.61,-5.62zm0,-14.71l0,-1.95l-1.51,-1.52l-3.48,3.47l4.99,0zm0,-10.85l0,-1.95l-5,0l3.48,3.47l1.52,-1.52zm0,-6.11l0,-10.55l-5.57,-5.62l-6.23,2.58l-3.19,7.7l5.87,5.87l9.12,0.02zm0,-16.42l0,-13.42l-9.48,-9.49l0,6.57l-5,2l8.27,3.42l-3.36,8.33l5,-2.05l4.57,4.64zm-8.46,101.11l4.17,-4.17l-5.19,0l0,3.15l1.02,1.02zm-1,-144.09l5.19,0l-4.17,-4.17l-1,1l-0.02,3.17zm-1.37,76.36l6.4,-6.4l-6.4,-6.4l-8.34,0l-2.65,6.4l2.65,6.4l8.34,0zm3.26,-98.52c0.07,-1.05 0.15,-2.1 0.22,-3.15a11.23,11.23 0 0 1 -4.12,-0.5a21.43,21.43 0 0 1 -6.83,-4.06a22.46,22.46 0 0 1 -5.51,-5.93c-0.79,-1.35 -1.36,-2.85 -2.2,-4.2a14.35,14.35 0 0 0 -6.15,-5.38a10.71,10.71 0 0 0 -4.41,-1.06a7.33,7.33 0 0 0 -1.81,0.19l-0.37,0.1l27.6,27.6a3.84,3.84 0 0 1 0.22,-1.11a3.64,3.64 0 0 1 1.6,-2a5.67,5.67 0 0 1 1.76,-0.5zm0.22,187.39c-0.07,-1.05 -0.15,-2.1 -0.22,-3.15a5.67,5.67 0 0 1 -1.73,-0.51a3.64,3.64 0 0 1 -1.6,-2a3.84,3.84 0 0 1 -0.22,-1.11l-27.6,27.6l0.37,0.1a7.33,7.33 0 0 0 1.81,0.19a10.71,10.71 0 0 0 4.38,-1.08a14.35,14.35 0 0 0 6.15,-5.38c0.84,-1.35 1.41,-2.85 2.2,-4.2a22.46,22.46 0 0 1 5.51,-5.93a21.43,21.43 0 0 1 6.83,-4.06a11.23,11.23 0 0 1 4.11,-0.47l0.01,0zm-13.09,-9.15l9.06,-9.06l-2.24,-2.23l0,-4.87l-4.87,0l-2.6,-2.6l-2.59,2.6l-3.89,0l0,3.86l-2.6,2.6l2.6,2.6l0,4.87l4.87,0l2.26,2.23zm6.82,-160.95l2.24,-2.23l-9.06,-9.06l-2.24,2.23l-4.89,0l0,4.87l-2.6,2.6l2.6,2.6l0,3.86l3.87,0l2.59,2.6l2.6,-2.6l4.87,0l0.02,-4.87zm-1.38,47.51l3.42,-8.27l-8.27,-3.43l-7.7,3.19l0,6.85l4.85,4.85l7.7,-3.19zm3.43,62.92l-3.42,-8.27l-7.7,-3.19l-4.88,4.84l0,6.85l7.7,3.19l8.3,-3.42zm-2,30.22l0,-5.92l-4.53,4.54l1.38,1.38l3.15,0zm0,-11.78l0,-7.94l-6.23,-2.58l-7.77,3.18l0,8.29l6.47,6.5l7.53,-7.45zm0,-100.12l0,-7.94l-7.47,-7.47l-6.53,6.46l0,8.33l7.7,3.19l6.3,-2.57zm0,-13.8l0,-5.92l-3.15,0l-1.44,1.4l4.59,4.52zm-6.29,75.36l4.92,-4.92l-7,0l-2.13,-5.13l-2.12,5.13l-18.47,0l17,7.06l0,5.56l3.93,-3.93l6.43,2.67l-2.56,-6.44zm-2,-26l7,0l-4.92,-4.92l2.66,-6.44l-6.43,2.67l-3.93,-3.93l0,5.56l-17,7.06l18.45,0l2.12,5.13l2.05,-5.13zm-2.45,-77.48l1,-1l-4.26,-4.23l0,5.2l3.26,0.03zm-3.26,181.23l4.18,-4.17l-1,-1l-3.18,0l0,5.17zm0,-154.13l3.53,-3.53l-1.38,-1.38l-2.15,0l0,4.91zm2.15,126.71l1.38,-1.38l-3.53,-3.53l0,4.91l2.15,0zm-6.3,-104.41l6.44,-2.66l-6.44,-2.67l0,-7l-4.92,4.93l-5.13,-2.13l2.13,5.13l-13.05,13.05l17.05,-7.06l3.92,3.93l0,-5.52zm0,82.53l6.44,-2.67l-6.43,-2.66l0,-5.56l-3.92,3.93l-17.05,-7.06l13.05,13.05l-2.13,5.13l5.13,-2.13l4.92,4.93l-0.01,-6.96zm5.38,-43.93l-2.65,-6.4l-25.7,0l-15.46,6.4l15.46,6.4l25.7,0l2.65,-6.4zm-5.38,97.38l0,-9.35l-10.05,0l-13.63,13.64l-19.29,0l-7.11,7.11l6.61,6.61l25.47,0l18,-18.01zm0,-13.49l0,-3.16l-1.38,-1.38l-4.53,4.54l5.91,0zm0,-11.79l0,-2.14l-4.91,0l3.53,3.53l1.38,-1.39zm0,-6.29l0,-9.06l-5.85,-5.89l-6.41,2.65l-2.65,6.4l5.9,5.9l9.01,0zm0,-122.56l0,-9.06l-9,0l-5.9,5.9l2.65,6.4l6.41,2.65l5.84,-5.89zm0,-13.21l0,-2.14l-1.38,-1.39l-3.53,3.53l4.91,0zm0,-10.77l0,-3.16l-5.91,0l4.53,4.54l1.38,-1.38zm0,-7.3l0,-9.37l-18,-18l-25.47,0l-6.61,6.61l7.11,7.11l19.29,0l13.63,13.64l10.05,0.01zm0,115.27l0,-6.85l-23.74,-9.84l-16.58,0l11.69,11.7l23.78,9.83l4.85,-4.84zm0,-47.63l0,-6.85l-4.85,-4.84l-23.74,9.83l-11.69,11.7l16.54,0l23.74,-9.84zm-4.15,-99.21l-6.28,0l2.68,2.69a4.6,4.6 0 0 1 0.41,-0.76a5.64,5.64 0 0 1 3.15,-1.93l0.04,0zm-6.32,239.2l6.28,0a5.64,5.64 0 0 1 -3.19,-1.93a4.6,4.6 0 0 1 -0.41,-0.76l-2.68,2.69zm-1.3,-35.71l7.47,-7.47l-6.46,-6.46l-8.34,0l-3.19,7.7l2.58,6.23l7.94,0zm1,-153.85l6.49,-6.47l-7.46,-7.46l-7.94,0l-2.58,6.23l3.19,7.7l8.3,0zm-2,26l-2.65,-6.41l-6.4,-2.65l-18.17,18.17l-6.45,15.45l15.46,-6.4l18.21,-18.16zm-2.65,94.27l2.65,-6.41l-18.17,-18.17l-15.46,-6.4l6.41,15.46l18.14,18.2l6.43,-2.68zm-4.43,-111.2l4.92,-4.92l-7,0l-2.66,-6.43l-2.67,6.43l-5.49,0l3.93,3.93l-7.07,17l13,-13l5.14,2.13l-2.1,-5.14zm-2,126.7l7,0l-5,-4.92l2.13,-5.14l-5.13,2.13l-13,-13l7.07,17l-3.93,3.93l5.55,0l2.67,6.43l2.64,-6.43zm-3.53,31.71l9.49,-9.49l-6.57,0l-2,-4.95l-3.43,8.27l-8.27,-3.43l2.05,5l-4.74,4.6l13.47,0zm2.92,-185.55l6.57,0l-9.49,-9.49l-13.47,0l4.64,4.64l-2.05,5l8.27,-3.43l3.43,8.27l2.1,-4.99zm-2.31,216.16l4.44,-4.44l-3.79,0a4.8,4.8 0 0 1 0.24,0.82a5.65,5.65 0 0 1 -0.91,3.62l0.02,0zm0.65,-251.82l3.79,0l-4.44,-4.44a5.65,5.65 0 0 1 0.89,3.62a4.8,4.8 0 0 1 -0.26,0.82l0.02,0zm-1.11,0a3.37,3.37 0 0 0 -0.19,-0.32a6.77,6.77 0 0 0 -1.14,-1.42a10.71,10.71 0 0 0 -3.86,-2.33a14.32,14.32 0 0 0 -8.16,-0.55c-1.55,0.36 -3,1 -4.53,1.42a23,23 0 0 1 -8.08,0.3a26.24,26.24 0 0 1 -5.92,-1.2l0.87,-2.71a11.8,11.8 0 0 0 5.53,0.64c1.92,-0.19 3.86,-0.73 5,-2.07a5.7,5.7 0 0 0 1.19,-3.38a5.32,5.32 0 0 0 -0.74,-3.12a8.54,8.54 0 0 0 -1.59,-1.67a5.37,5.37 0 0 1 1.12,-0.87a3.8,3.8 0 0 1 2.52,-0.18a7.55,7.55 0 0 1 2.49,1.12a6.14,6.14 0 0 1 2.22,2.19a7.15,7.15 0 0 1 0.55,2.61a15.7,15.7 0 0 1 1.55,-0.29a8.63,8.63 0 0 1 3.57,0.35a9.89,9.89 0 0 1 1.82,0.81l-33.9,-33.9l-1.75,0l-33.91,33.86a9.89,9.89 0 0 1 1.82,-0.81a8.63,8.63 0 0 1 3.57,-0.35a15.7,15.7 0 0 1 1.55,0.29a7.15,7.15 0 0 1 0.55,-2.61a6.14,6.14 0 0 1 2.22,-2.19a7.55,7.55 0 0 1 2.49,-1.12a3.8,3.8 0 0 1 2.52,0.18a5.07,5.07 0 0 1 1.11,0.87a8.48,8.48 0 0 0 -1.56,1.67a5.32,5.32 0 0 0 -0.74,3.12a5.63,5.63 0 0 0 1.19,3.38c1.13,1.34 3.07,1.88 5,2.07a11.8,11.8 0 0 0 5.53,-0.64l0.87,2.71a26.13,26.13 0 0 1 -5.92,1.2a23,23 0 0 1 -8.08,-0.3c-1.52,-0.4 -3,-1.06 -4.53,-1.42a14.32,14.32 0 0 0 -8.16,0.55a10.71,10.71 0 0 0 -3.86,2.33a7.16,7.16 0 0 0 -1.15,1.42l-0.18,0.32l39,0a4.61,4.61 0 0 1 -0.63,-0.93a3.64,3.64 0 0 1 -0.25,-2.53a5.6,5.6 0 0 1 0.86,-1.59l-0.4,-0.46l1.94,-1.69l1.94,1.7l-0.39,0.45a5.86,5.86 0 0 1 0.86,1.59a3.64,3.64 0 0 1 -0.26,2.53a4.19,4.19 0 0 1 -0.62,0.93l39.05,0.04zm-0.19,247.7a3.37,3.37 0 0 0 0.19,-0.32l-39,0a4.19,4.19 0 0 1 0.62,0.93a3.64,3.64 0 0 1 0.26,2.53a5.86,5.86 0 0 1 -0.86,1.59l0.39,0.45l-1.94,1.7l-1.94,-1.69l0.4,-0.46a5.6,5.6 0 0 1 -0.86,-1.59a3.64,3.64 0 0 1 0.25,-2.53a4.61,4.61 0 0 1 0.63,-0.93l-39,0l0.18,0.32a7.16,7.16 0 0 0 1.15,1.42a10.71,10.71 0 0 0 3.86,2.33a14.32,14.32 0 0 0 8.16,0.55c1.55,-0.36 3,-1 4.53,-1.42a23,23 0 0 1 8.08,-0.3a26.13,26.13 0 0 1 5.92,1.2l-0.87,2.71a11.8,11.8 0 0 0 -5.53,-0.64c-1.92,0.19 -3.86,0.73 -5,2.07a5.63,5.63 0 0 0 -1.19,3.38a5.32,5.32 0 0 0 0.74,3.12a8.48,8.48 0 0 0 1.56,1.67a5.07,5.07 0 0 1 -1.11,0.87a3.8,3.8 0 0 1 -2.52,0.18a7.55,7.55 0 0 1 -2.49,-1.12a6.14,6.14 0 0 1 -2.22,-2.19a7.15,7.15 0 0 1 -0.55,-2.61a15.7,15.7 0 0 1 -1.55,0.29a8.63,8.63 0 0 1 -3.57,-0.35a9.89,9.89 0 0 1 -1.82,-0.81l33.9,33.9l1.75,0l33.9,-33.9a9.89,9.89 0 0 1 -1.82,0.81a8.63,8.63 0 0 1 -3.57,0.35a15.7,15.7 0 0 1 -1.55,-0.29a7.15,7.15 0 0 1 -0.55,2.61a6.14,6.14 0 0 1 -2.22,2.19a7.55,7.55 0 0 1 -2.49,1.12a3.8,3.8 0 0 1 -2.52,-0.18a5.37,5.37 0 0 1 -1.12,-0.87a8.54,8.54 0 0 0 1.57,-1.67a5.32,5.32 0 0 0 0.74,-3.12a5.7,5.7 0 0 0 -1.19,-3.38c-1.13,-1.34 -3.07,-1.88 -5,-2.07a11.8,11.8 0 0 0 -5.53,0.64l-0.87,-2.71a26.24,26.24 0 0 1 5.92,-1.2a23,23 0 0 1 8.08,0.3c1.52,0.4 3,1.06 4.53,1.42a14.32,14.32 0 0 0 8.16,-0.55a10.71,10.71 0 0 0 3.86,-2.33a6.77,6.77 0 0 0 1.1,-1.42l0.02,0zm-1.34,-201.67l-3.42,-8.27l-8.27,3.43l-3.19,7.7l4.84,4.84l6.85,0l3.19,-7.7zm0,155.32l-3.19,-7.7l-6.9,0l-4.84,4.84l3.19,7.7l8.27,3.43l3.47,-8.27zm-16.79,-114.83l9.83,-23.74l-4.84,-4.84l-6.85,0l-9.83,23.74l0,16.53l11.69,-11.69zm9.83,98.08l-9.83,-23.74l-11.69,-11.69l0,16.53l9.83,23.74l6.85,0l4.84,-4.84zm-10.13,-63.15l10.06,-4.16l-10.88,0l-2.7,2.69l3.52,1.47zm-0.83,8.64l10.88,0l-10.05,-4.16l-3.53,1.47l2.7,2.69zm-1.65,-16.8l7.69,-7.69l-10,4.16l-1.5,3.53l3.81,0zm-2.35,24.35l10,4.16l-7.69,-7.69l-3.81,0l1.5,3.53zm9.61,-105.84l-5.61,-5.62l-10.56,0l0,9.11l5.89,5.89l7.7,-3.19l2.58,-6.19zm0,183.8l-2.58,-6.22l-7.7,-3.19l-5.86,5.86l0,9.17l10.55,0l5.59,-5.62zm-3.56,-161.8l-3.92,-3.93l2.66,-6.43l-6.43,2.66l-4.92,-4.92l0,7l-5.14,2.11l5.14,2.13l0,18.45l7.06,-17.05l5.55,-0.02zm-3.92,143.72l3.92,-3.93l-5.55,0l-7.06,-17.05l0,18.45l-5.14,2.13l5.14,2.13l0,7l4.92,-4.92l6.43,2.66l-2.66,-6.47zm-5.3,-90.94l4.16,-10l-7.68,7.69l0,3.82l3.52,-1.51zm4.16,44.27l-4.16,-10.05l-3.53,-1.51l0,3.82l7.69,7.74zm-5.31,78.69l4.18,-4.18l-6.41,0l0,1.93l2.23,2.25zm-2.23,-207.52l6.38,0l-4.18,-4.18l-2.23,2.23l0.03,1.95zm0.62,104l5.38,-2.2l-5.36,-2.25l4.13,-4.09l-5.82,0l2.25,-5.36l-5.38,2.2l0,-5.81l-4.13,4.09l-2.2,-5.38l-2.25,5.36l-4.09,-4.13l0,5.81l-5.36,-2.25l2.2,5.38l-5.81,0l4.09,4.12l-5.38,2.2l5.36,2.25l-4.13,4.09l5.82,0l-2.26,5.24l5.38,-2.2l0,5.81l4.13,-4.09l2.2,5.38l2.25,-5.36l4.09,4.13l0,-5.81l5.36,2.25l-2.2,-5.38l5.81,0l-4.08,-4zm1.61,-114l3.67,-3.67l-5.9,0l0,1.45l2.23,2.22zm-2.23,227.11l5.9,0l-3.67,-3.67l-2.23,2.22l0,1.45zm-0.71,-224.17l-3.44,-3.45l0,-3.22l-12.82,0l0,3.16l-3.44,3.45l3.44,3.44l0,3.67l3.67,0l2.73,2.74l2.74,-2.74l3.67,0l0,-3.67l3.45,-3.38zm-3.44,221l3.44,-3.45l-3.44,-3.44l0,-3.67l-3.67,0l-2.8,-2.78l-2.73,2.74l-3.67,0l0,3.67l-3.44,3.44l3.44,3.45l0,3.16l12.81,0l0.06,-3.12zm0,-14.71l0,-5l-3.47,3.44l1.51,1.52l1.96,0.04zm0,-10.86l0,-8.33l-6.47,-2.7l-6.4,2.66l0,8.33l6.4,6.41l6.47,-6.37zm0,-18.13l0,-25.73l-6.47,-15.46l-6.4,15.46l0,25.69l6.4,2.66l6.47,-2.62zm0,-36.53l0,-10.91l-2.7,-2.7l-1.46,3.53l4.16,10.08zm0,-53.13l0,-10.91l-4.16,10l1.46,3.53l2.7,-2.62zm0,-21.71l0,-25.73l-6.47,-2.66l-6.4,2.66l0,25.69l6.4,15.44l6.47,-15.4zm0,-35.49l0,-8.33l-6.47,-6.45l-6.4,6.41l0,8.33l6.4,2.66l6.47,-2.62zm0,-14.2l0,-5l-2,0l-1.47,1.49l3.47,3.51zm-8.65,70.57l-4.16,-10l0,10.87l2.7,2.7l1.46,-3.57zm0,43.92l-1.46,-3.53l-2.7,2.7l0,10.83l4.16,-10zm-4.16,-114.49l3.47,-3.47l-1.52,-1.52l-2,0l0.05,4.99zm2,190.05l1.52,-1.52l-3.47,-3.47l0,5l1.95,-0.01zm-6.16,-168.86l5.14,-2.13l-5.14,-2.13l0,-7l-4.92,4.92l-6.43,-2.66l2.66,6.43l-3.93,3.93l5.56,0l7.06,17.05l0,-18.41zm0,146.86l5.14,-2.13l-5.14,-2.13l0,-18.45l-7.06,17.05l-5.56,0l3.93,3.93l-2.66,6.43l6.43,-2.66l4.92,4.92l0,-6.96zm0.14,-56.09l0,-3.87l-3.52,1.46l-4.12,10.1l7.64,-7.69zm0,-35.12l0,-3.82l-7.64,-7.69l4.16,10l3.48,1.51zm-0.14,131l0,-1.45l-2.23,-2.22l-3.67,3.67l5.9,0zm0,-11.77l0,-1.95l-6.41,0l4.18,4.18l2.23,-2.23zm0,-6.1l0,-9.14l-5.89,-5.89l-7.71,3.19l-2.57,6.22l5.61,5.62l10.56,0zm0,-55.51l0,-16.49l-11.69,11.69l-9.81,23.74l4.84,4.84l6.85,0l9.81,-23.78zm0,-67.49l0,-16.49l-9.83,-23.74l-6.85,0l-4.82,4.84l9.83,23.74l11.67,11.65zm0,-76.19l0,-1.95l-2.23,-2.23l-4.18,4.18l6.41,0zm0,-12.27l0,-1.42l-5.9,0l3.67,3.67l2.23,-2.25zm0,25.59l0,-9.17l-10.56,0l-5.61,5.62l2.57,6.22l7.71,3.19l5.89,-5.86zm-5.1,77.99l-1.46,-3.53l-10,-4.16l7.69,7.69l3.77,0zm-1.46,24.35l1.46,-3.53l-3.81,0l-7.69,7.69l10.04,-4.16zm-5.21,101.45l6.61,-6.61l-7.12,-7.11l-19.28,0l-13.63,-13.64l-10.07,0l0,9.35l18,18l25.49,0.01zm-0.51,-217.06l7.12,-7.11l-6.61,-6.63l-25.47,0l-18,18l0,9.35l10.07,0l13.63,-13.64l19.26,0.03zm1.71,108.07l2.69,-2.69l-3.52,-1.47l-10,4.16l10.83,0zm-0.83,-8.64l3.52,-1.47l-2.69,-2.7l-10.93,0l10.1,4.17zm2.6,-17.17l-6.41,-15.46l-18.17,-18.17l-6.4,2.65l-2.65,6.41l18.16,18.17l15.47,6.4zm-6.41,54.18l6.41,-15.46l-15.47,6.4l-18.16,18.17l2.65,6.41l6.4,2.65l18.17,-18.17zm1.63,-109.62l-3.19,-7.7l-8.27,-3.43l-3.46,8.31l3.19,7.7l6.85,0l4.88,-4.88zm-3.19,157.3l3.19,-7.7l-4.84,-4.84l-6.85,0l-3.19,7.7l3.42,8.27l8.27,-3.43zm1.85,-93l-11.69,-11.7l-23.74,-9.83l-4.85,4.84l0,6.83l23.7,9.85l16.58,0.01zm-11.69,32.8l11.69,-11.7l-16.58,0l-23.74,9.84l0,6.85l4.85,4.84l23.78,-9.83zm5.54,-115.13l4.65,-4.64l-13.42,0l-9.49,9.49l6.57,0l2.05,4.95l3.43,-8.27l8.27,3.43l-2.06,-4.96zm-8.77,190.4l13.42,0l-4.65,-4.64l2.06,-5l-8.27,3.43l-3.43,-8.27l-2.05,4.95l-6.57,0l9.49,9.53zm-2.44,-91.12l15.46,-6.4l-15.46,-6.41l-25.7,0l-2.65,6.4l2.65,6.4l25.7,0.01zm12.92,-51.23l-7.06,-17l3.93,-3.93l-5.55,0l-2.67,-6.43l-2.66,6.43l-7,0l4.92,4.92l-2.05,5.08l5.14,-2.13l13,13.06zm-7.06,106.71l7.06,-17l-13,13l-5.14,-2.14l2.13,5.14l-4.92,4.92l7,0l2.66,6.43l2.67,-6.43l5.46,0l-3.92,-3.92zm-4,-190l-4.44,4.44l3.79,0a4.8,4.8 0 0 1 -0.24,-0.82a5.59,5.59 0 0 1 0.81,-3.64l0.08,0.02zm-4.44,251.82l4.44,4.44a5.59,5.59 0 0 1 -0.89,-3.62a4.8,4.8 0 0 1 0.24,-0.82l-3.79,0zm1.94,-201.35l-2.58,-6.25l-8,0l-7.44,7.49l6.46,6.46l8.34,0l3.22,-7.7zm0,155.32l-3.19,-7.7l-8.3,0l-6.49,6.47l7.46,7.46l7.94,0l2.58,-6.23zm-14.38,-34.7l13,-13.05l-17,7.06l-3.93,-3.93l0,5.54l-6.43,2.66l6.43,2.67l0,7l4.93,-4.93l5.13,2.13l-2.13,-5.15zm-4,-79.93l17,7.06l-13,-13.05l2.13,-5.13l-5.13,2.13l-4.93,-4.93l0,7l-6.43,2.67l6.43,2.66l0,5.56l3.93,-3.97zm8.37,-16.54l2.66,-6.4l-5.9,-5.9l-9.06,0l0,9.06l5.9,5.89l6.4,-2.65zm2.66,113.42l-2.66,-6.4l-6.4,-2.65l-5.9,5.89l0,9.06l9.06,0l5.9,-5.9zm-20.45,-70.46l18.42,0l-17,-7.06l0,-5.56l-3.93,3.93l-6.43,-2.67l2.66,6.44l-4.92,4.92l7,0l2.12,5.13l2.08,-5.13zm1.38,28.13l17,-7.06l-18.41,0l-2.13,-5.13l-2.12,5.13l-7,0l4.92,4.92l-2.66,6.44l6.43,-2.67l3.93,3.93l0.04,-5.56zm11.84,-134.51l2.68,-2.69l-6.28,0a5.67,5.67 0 0 1 3.19,1.93a4.6,4.6 0 0 1 0.41,0.76zm2.73,236.51l-2.73,-2.69a4.6,4.6 0 0 1 -0.41,0.76a5.67,5.67 0 0 1 -3.19,1.93l6.33,0zm-31.06,-208.13l27.6,-27.6l-0.37,-0.1a7.33,7.33 0 0 0 -1.81,-0.19a10.71,10.71 0 0 0 -4.38,1.08a14.35,14.35 0 0 0 -6.15,5.38c-0.84,1.35 -1.41,2.85 -2.2,4.2a22.63,22.63 0 0 1 -5.51,5.93a21.43,21.43 0 0 1 -6.83,4.06a11.23,11.23 0 0 1 -4.12,0.5c0.07,1.05 0.15,2.1 0.22,3.15a5.67,5.67 0 0 1 1.73,0.51a3.64,3.64 0 0 1 1.6,2a4.2,4.2 0 0 1 0.22,1.08zm27.23,204.76l0.37,-0.1l-27.6,-27.6a4.2,4.2 0 0 1 -0.22,1.11a3.64,3.64 0 0 1 -1.6,2a5.67,5.67 0 0 1 -1.73,0.51c-0.07,1.05 -0.15,2.1 -0.22,3.15a11.23,11.23 0 0 1 4.12,0.5a21.43,21.43 0 0 1 6.83,4.06a22.63,22.63 0 0 1 5.51,5.93c0.79,1.35 1.36,2.85 2.2,4.2a14.35,14.35 0 0 0 6.15,5.38a10.71,10.71 0 0 0 4.38,1.08a7.33,7.33 0 0 0 1.81,-0.22zm-5.27,-195.63l4.53,-4.54l-5.92,0l0,3.16l1.39,1.38zm4.53,163.24l-4.53,-4.54l-1.39,1.38l0,3.16l5.92,0zm-4.53,-10.4l3.53,-3.53l-4.92,0l0,2.14l1.39,1.39zm-1.39,-143.45l4.92,0l-3.53,-3.53l-1.39,1.39l0,2.14zm-1.55,-6.39l-2.59,-2.6l0,-4.87l-4.87,0l-2.23,-2.25l-9.06,9.06l2.24,2.23l0,4.87l4.82,0l2.6,2.6l2.59,-2.6l3.87,0l0,-3.86l2.63,-2.58zm0,152.84l-2.59,-2.6l0,-3.86l-3.87,0l-2.59,-2.6l-2.6,2.6l-4.87,0l0,4.87l-2.24,2.23l9.06,9.06l2.24,-2.23l4.87,0l0,-4.87l2.59,-2.6zm-2.59,16.81l0,-5.2l-3.15,0l-1,1l4.15,4.2zm0,-27.42l0,-4.93l-3.53,3.53l1.38,1.38l2.15,0.02zm0,-10.78l0,-8.35l-7.71,-3.19l-6.22,2.58l0,7.94l7.47,7.47l6.46,-6.45zm0,-19.2l0,-6.85l-4.85,-4.85l-7.7,3.19l-3.42,8.26l8.26,3.43l7.71,-3.18zm0,-64.81l0,-6.85l-7.71,-3.19l-8.26,3.43l3.42,8.27l7.7,3.19l4.85,-4.85zm0,-17.72l0,-8.29l-6.47,-6.5l-7.46,7.46l0,7.94l6.22,2.58l7.71,-3.19zm0,-14.2l0,-4.91l-2.15,0l-1.38,1.39l3.53,3.52zm0,-27.13l0,-5.2l-4.18,4.17l1,1l3.18,0.03zm-0.47,-31.57l-47.93,0l-1.24,1.18l0,48a10.1,10.1 0 0 1 0.71,-1.85a8.53,8.53 0 0 1 2.28,-2.78a15.75,15.75 0 0 1 1.3,-0.89a7.47,7.47 0 0 1 -1.46,-2.23a6.23,6.23 0 0 1 0,-3.12a7.48,7.48 0 0 1 1,-2.56a3.87,3.87 0 0 1 1.91,-1.65a5,5 0 0 1 1.41,-0.17a8.25,8.25 0 0 0 0.07,2.28a5.4,5.4 0 0 0 1.68,2.74a5.71,5.71 0 0 0 3.23,1.54c1.75,0.15 3.51,-0.84 5,-2.06a13.18,13.18 0 0 0 2.44,-2.58l2.59,1.26a34,34 0 0 1 -2.39,3.29a22.71,22.71 0 0 1 -5.92,5.5c-1.35,0.79 -2.85,1.36 -4.21,2.2a14.44,14.44 0 0 0 -5.38,6.16a10.87,10.87 0 0 0 -1.08,4.38a7.33,7.33 0 0 0 0.19,1.81c0,0.12 0.07,0.24 0.1,0.36l27.59,-27.63a4.65,4.65 0 0 1 -1.11,-0.22a3.69,3.69 0 0 1 -2,-1.61a5.81,5.81 0 0 1 -0.51,-1.72l-0.62,-0.05l0.19,-2.57l-0.86,-3.13l-1.84,-0.41l0.54,-2.41l2.56,-1.43a14.46,14.46 0 0 0 1,1.5a16.26,16.26 0 0 0 4.37,-0.18a10.74,10.74 0 0 0 5.62,-3.86c1.22,-1.5 2.21,-3.25 2.06,-5a5.68,5.68 0 0 0 -1.54,-3.23a5.33,5.33 0 0 0 -2.74,-1.69a8.65,8.65 0 0 0 -2.28,-0.07a5,5 0 0 1 0.18,-1.4a3.78,3.78 0 0 1 1.65,-1.91a7.66,7.66 0 0 1 2.55,-1a6.11,6.11 0 0 1 3.12,0a7,7 0 0 1 2.23,1.46c0.29,-0.45 0.57,-0.89 0.89,-1.3a8.51,8.51 0 0 1 2.78,-2.28a9.71,9.71 0 0 1 1.87,-0.69l0,0.02zm-47.93,239.18l47.93,0a9.71,9.71 0 0 1 -1.85,-0.72a8.51,8.51 0 0 1 -2.78,-2.28c-0.32,-0.41 -0.6,-0.85 -0.89,-1.3a7,7 0 0 1 -2.23,1.46a6.11,6.11 0 0 1 -3.12,0a7.66,7.66 0 0 1 -2.55,-1a3.78,3.78 0 0 1 -1.65,-1.91a5,5 0 0 1 -0.18,-1.4a8.65,8.65 0 0 0 2.28,-0.07a5.33,5.33 0 0 0 2.74,-1.69a5.68,5.68 0 0 0 1.54,-3.23c0.15,-1.75 -0.84,-3.5 -2.06,-5a10.74,10.74 0 0 0 -5.62,-3.86a16.26,16.26 0 0 0 -4.37,-0.18a14.46,14.46 0 0 0 -1,1.5l-2.56,-1.43l-0.54,-2.41l1.84,-0.41l0.86,-3.13l-0.19,-2.57l0.62,-0.05a5.81,5.81 0 0 1 0.51,-1.72a3.69,3.69 0 0 1 2,-1.61a4.65,4.65 0 0 1 1.11,-0.22l-27.6,-27.59c0,0.12 -0.07,0.24 -0.1,0.36a7.33,7.33 0 0 0 -0.19,1.81a10.87,10.87 0 0 0 1.08,4.38a14.44,14.44 0 0 0 5.38,6.16c1.36,0.84 2.86,1.41 4.21,2.2a22.71,22.71 0 0 1 5.92,5.5a34,34 0 0 1 2.39,3.29l-2.63,1.27a13.18,13.18 0 0 0 -2.44,-2.58c-1.49,-1.22 -3.25,-2.21 -5,-2.06a5.71,5.71 0 0 0 -3.23,1.54a5.4,5.4 0 0 0 -1.68,2.74a8.25,8.25 0 0 0 -0.07,2.28a5,5 0 0 1 -1.41,-0.17a3.87,3.87 0 0 1 -1.91,-1.65a7.48,7.48 0 0 1 -1,-2.56a6.23,6.23 0 0 1 0,-3.12a7.47,7.47 0 0 1 1.46,-2.23a15.75,15.75 0 0 1 -1.3,-0.89a8.53,8.53 0 0 1 -2.28,-2.78a10.1,10.1 0 0 1 -0.71,-1.85l0,47.94l1.27,1.24zm42.68,-119.6l-2.65,-6.4l-8.34,0l-6.4,6.4l6.4,6.4l8.34,0l2.65,-6.4zm-8.21,-59.89l4.53,-4.51l-1.38,-1.38l-3.15,0l0,5.89zm4.53,124.32l-4.53,-4.54l0,5.92l3.15,0l1.38,-1.38zm-3.13,-80.88l-3.19,-7.7l-6.23,-2.58l-5.62,5.62l0,10.56l9.14,0l5.9,-5.9zm-3.19,40.6l3.19,-7.7l-5.87,-5.85l-9.17,0l0,10.55l5.62,5.62l6.23,-2.62zm-5.67,-62l8.27,-3.42l-5,-2l0,-6.57l-9.45,9.44l0,13.41l4.65,-4.64l4.95,2.05l-3.42,-8.27zm3.29,81.16l5,-2l-8.27,-3.42l3.42,-8.27l-4.95,2l-4.65,-4.64l0,13.41l9.49,9.49l-0.04,-6.57zm0,29.8l0,-3.15l-5.2,0l4.18,4.17l1.02,-1.02zm0,-7.3l0,-10.06l-13.63,-13.64l0,-19.28l-7.12,-7.12l-6.61,6.61l0,25.48l18,18l9.36,0.01zm0,-121.56l0,-10.06l-9.34,0l-18,18l0,25.48l6.61,6.61l7.12,-7.12l0,-19.27l13.61,-13.64zm0,-14.21l0,-3.15l-1,-1l-4.18,4.17l5.18,-0.02zm-8,67l3.47,-3.47l-5,0l0,1.95l1.53,1.52zm-1.52,9.33l5,0l-3.48,-3.44l-1.52,1.52l0,1.92zm-4.14,-3.67l2.73,-2.73l-2.73,-2.73l0,-3.64l-3.68,0l-3.44,-3.45l-3.39,3.45l-3.17,0l0,12.8l3.17,0l3.44,3.45l3.44,-3.45l3.68,0l-0.05,-3.7zm0,14.23l0,-6.33l-2,0l-2.23,2.23l4.23,4.1zm0,-27.51l0,-6.41l-4.19,4.18l2.23,2.23l1.96,0zm-12.28,0l2.23,-2.23l-3.68,-3.68l0,5.91l1.45,0zm-1.45,27l3.68,-3.68l-2.23,-2.23l-1.45,0l0,5.91zm-4.2,-71.78l2.68,-2.69a3.87,3.87 0 0 1 -0.75,-0.41a5.56,5.56 0 0 1 -1.93,-3.18l0,6.28zm2.68,113.33l-2.68,-2.69l0,6.32a5.56,5.56 0 0 1 1.93,-3.18a3.87,3.87 0 0 1 0.8,-0.41l-0.05,-0.04zm-6.77,-12.56l0,-3.81a4.16,4.16 0 0 1 -0.83,0.25a5.61,5.61 0 0 1 -3.61,-0.89l4.44,4.45zm0,-4.9l0,-39a4.29,4.29 0 0 1 -0.94,0.63a3.7,3.7 0 0 1 -2.53,0.26a5.94,5.94 0 0 1 -1.58,-0.86l-0.47,0.4l-1.69,-2l1.69,-1.95l0.47,0.4a5.94,5.94 0 0 1 1.58,-0.86a3.7,3.7 0 0 1 2.53,0.26a4.29,4.29 0 0 1 0.94,0.63l0,-39l-0.32,0.18a7.8,7.8 0 0 0 -1.42,1.14a10.85,10.85 0 0 0 -2.33,3.86a14.5,14.5 0 0 0 -0.55,8.16c0.37,1.56 1,3 1.42,4.53a22.54,22.54 0 0 1 0.3,8.08a30,30 0 0 1 -0.89,5l-2.79,-0.57a12.15,12.15 0 0 0 0.42,-4.88c-0.2,-1.92 -0.74,-3.86 -2.08,-5a5.7,5.7 0 0 0 -3.37,-1.2a5.38,5.38 0 0 0 -3.13,0.75a8.15,8.15 0 0 0 -1.66,1.56a5.24,5.24 0 0 1 -0.88,-1.12a3.86,3.86 0 0 1 -0.18,-2.52a7.52,7.52 0 0 1 1.13,-2.48a6.09,6.09 0 0 1 2.19,-2.23a7.35,7.35 0 0 1 2.6,-0.54c-0.11,-0.52 -0.22,-1 -0.29,-1.55a8.53,8.53 0 0 1 0.36,-3.58a9.77,9.77 0 0 1 0.8,-1.81l-33.85,33.92l0,1.76l33.89,33.89a9.77,9.77 0 0 1 -0.8,-1.81a8.53,8.53 0 0 1 -0.36,-3.58c0.07,-0.52 0.18,-1 0.29,-1.55a7.35,7.35 0 0 1 -2.6,-0.54a6.09,6.09 0 0 1 -2.19,-2.23a7.52,7.52 0 0 1 -1.13,-2.46a3.86,3.86 0 0 1 0.18,-2.52a5.24,5.24 0 0 1 0.88,-1.12a8.15,8.15 0 0 0 1.66,1.56a5.38,5.38 0 0 0 3.13,0.75a5.7,5.7 0 0 0 3.37,-1.2c1.34,-1.13 1.88,-3.07 2.08,-5a12.15,12.15 0 0 0 -0.42,-4.88l2.79,-0.57a30,30 0 0 1 0.89,5a22.54,22.54 0 0 1 -0.3,8.08c-0.39,1.51 -1,3 -1.42,4.53a14.5,14.5 0 0 0 0.55,8.16a10.85,10.85 0 0 0 2.33,3.86a7.8,7.8 0 0 0 1.42,1.14l0.28,0.12zm0,-82.2l0,-3.8l-4.44,4.44a5.61,5.61 0 0 1 3.61,-0.89a4.16,4.16 0 0 1 0.88,0.29l-0.05,-0.04z"/>
   <path id="svg_2" fill="#1B1B1B" d="m345.38,174.48l0,1.76a10.27,10.27 0 0 1 -2.63,1.46a3.56,3.56 0 0 1 -3.06,0a3.89,3.89 0 0 1 -0.81,-0.81l-1,0a36.16,36.16 0 0 1 -2.72,3.4a14.66,14.66 0 0 1 -7.48,4.51a20.79,20.79 0 0 1 -6.71,-0.17a2.49,2.49 0 0 1 1.19,1.57a5.66,5.66 0 0 1 -0.8,4.34a5.15,5.15 0 0 1 -3.17,2.17a6.76,6.76 0 0 1 -1.12,0.25a5.77,5.77 0 0 1 -3.46,-0.77a5,5 0 0 1 -2.19,-3.2a4.73,4.73 0 0 1 0.88,-3.89a7.46,7.46 0 0 1 2.23,-1.61c0,0.79 0,1.57 0.51,1.85a1.36,1.36 0 0 0 1.32,-0.16a1.4,1.4 0 0 0 0.54,-1.28a2.37,2.37 0 0 0 -0.79,-1.29a6,6 0 0 0 -2.06,-1.32a10.63,10.63 0 0 0 -2.88,-0.76a16,16 0 0 0 -3,3.23a8.56,8.56 0 0 0 -0.83,1.82l-2.79,-0.57a15,15 0 0 1 1.07,-2.73a11.19,11.19 0 0 1 2.56,-3.27c-0.64,-0.55 -1.28,-1.1 -1.91,-1.66l1.69,-2l2.81,1.6l2.53,-1.6l-2.53,-1.6l-2.81,1.6l-1.69,-1.95c0.63,-0.56 1.27,-1.11 1.91,-1.66a11.19,11.19 0 0 1 -2.56,-3.27a15,15 0 0 1 -1.07,-2.73l2.79,-0.57a8.56,8.56 0 0 0 0.83,1.82a16,16 0 0 0 3,3.23a10.63,10.63 0 0 0 2.88,-0.76a6,6 0 0 0 2.06,-1.32a2.37,2.37 0 0 0 0.79,-1.29a1.4,1.4 0 0 0 -0.54,-1.28a1.36,1.36 0 0 0 -1.32,-0.16c-0.5,0.28 -0.5,1.06 -0.51,1.85a7.46,7.46 0 0 1 -2.23,-1.61a4.73,4.73 0 0 1 -0.88,-3.89a5,5 0 0 1 2.19,-3.2a5.77,5.77 0 0 1 3.46,-0.77a6.76,6.76 0 0 1 1.11,0.18a5.15,5.15 0 0 1 3.17,2.17a5.66,5.66 0 0 1 0.8,4.34a2.49,2.49 0 0 1 -1.19,1.57a20.79,20.79 0 0 1 6.71,-0.17a14.66,14.66 0 0 1 7.48,4.51a36.16,36.16 0 0 1 2.72,3.4l1,0a3.89,3.89 0 0 1 0.81,-0.81a3.56,3.56 0 0 1 3.06,0a10.27,10.27 0 0 1 2.64,1.5zm-12.5,0.88a36.91,36.91 0 0 0 -3.06,-2.34a12.71,12.71 0 0 0 -4.9,-2.08a17.46,17.46 0 0 0 -6.63,0.62c-1.54,0.36 -3,0.74 -4.54,1.12c0.82,0.34 1.65,0.69 2.5,1a14.19,14.19 0 0 0 4.49,0.8a7.82,7.82 0 0 0 3.74,-0.86a9.51,9.51 0 0 0 1,-0.65l0,4.84a9.51,9.51 0 0 0 -1,-0.65a7.82,7.82 0 0 0 -3.74,-0.86a14.19,14.19 0 0 0 -4.49,0.8c-0.85,0.28 -1.68,0.63 -2.5,1c1.5,0.38 3,0.76 4.54,1.12a17.46,17.46 0 0 0 6.63,0.62a12.71,12.71 0 0 0 4.9,-2.08a36.91,36.91 0 0 0 3.06,-2.4z"/>
   <path id="svg_3" fill="#1B1B1B" d="m294.07,56.06l2.69,0.94a10.54,10.54 0 0 1 -0.82,2.9c-0.47,1 -1.19,2 -2.15,2.19a4,4 0 0 1 -1.15,0l-0.69,0.7a38.74,38.74 0 0 1 0.48,4.33a14.66,14.66 0 0 1 -2.1,8.48a21.24,21.24 0 0 1 -4.86,4.63a2.49,2.49 0 0 1 1.94,0.26a5.66,5.66 0 0 1 2.51,3.64a5.21,5.21 0 0 1 -0.7,3.77a6,6 0 0 1 -3.66,2.82a5,5 0 0 1 -3.81,-0.71a4.73,4.73 0 0 1 -2.13,-3.38a7.55,7.55 0 0 1 0.44,-2.71c0.56,0.55 1.12,1.1 1.67,0.94a1.36,1.36 0 0 0 0.82,-1a1.4,1.4 0 0 0 -0.52,-1.29a2.32,2.32 0 0 0 -1.48,-0.35a5.82,5.82 0 0 0 -2.38,0.52a10.72,10.72 0 0 0 -2.58,1.5a15.92,15.92 0 0 0 0.19,4.38a7.9,7.9 0 0 0 0.55,1.57l-2.68,1a13.37,13.37 0 0 1 -0.72,-1.81a11.44,11.44 0 0 1 -0.5,-4.12l-2.52,0.18l-0.19,-2.57l3.12,-0.87l0.66,-2.91l-1.08,0.24l-0.54,-2.41c0.82,-0.34 1.65,-0.69 2.45,-1.08a14.22,14.22 0 0 0 3.74,-2.61a7.9,7.9 0 0 0 2,-3.26a11.4,11.4 0 0 0 0.25,-1.16l3.42,3.42a9,9 0 0 0 -1.17,0.24a7.88,7.88 0 0 0 -3.25,2.05a14.17,14.17 0 0 0 -2.61,3.73c-0.4,0.8 -0.74,1.63 -1.08,2.46c1.33,-0.8 2.66,-1.59 4,-2.42a17.56,17.56 0 0 0 5.13,-4.25a13,13 0 0 0 2,-4.94a38.21,38.21 0 0 0 0.5,-3.81a35.67,35.67 0 0 0 -3.82,0.5a12.8,12.8 0 0 0 -4.93,2a17.24,17.24 0 0 0 -4.25,5.12c-0.79,1.28 -1.54,2.53 -2.29,3.79l-2.52,-1.5c0.14,-0.29 0.25,-0.54 0.35,-0.78a6.07,6.07 0 0 0 0.51,-2.39a2.35,2.35 0 0 0 -0.34,-1.47a1.42,1.42 0 0 0 -1.3,-0.52a1.35,1.35 0 0 0 -1,0.82c-0.15,0.54 0.4,1.1 0.95,1.66a7.65,7.65 0 0 1 -2.72,0.45a4.72,4.72 0 0 1 -3.37,-2.14a5,5 0 0 1 -0.72,-3.81a5.72,5.72 0 0 1 1.87,-2.95a6.27,6.27 0 0 1 0.95,-0.7a5.21,5.21 0 0 1 3.77,-0.71a5.69,5.69 0 0 1 3.64,2.52a2.45,2.45 0 0 1 0.27,1.94a20.44,20.44 0 0 1 4.63,-4.86a14.57,14.57 0 0 1 8.48,-2.1a34.55,34.55 0 0 1 4.33,0.48l0.69,-0.7a4,4 0 0 1 0,-1.15a3.61,3.61 0 0 1 2.2,-2.14a8.38,8.38 0 0 1 1.43,-0.59z"/>
   <path id="svg_4" fill="#1B1B1B" d="m296.72,293.72l-2.69,0.94a8.38,8.38 0 0 1 -1.44,-0.53a3.61,3.61 0 0 1 -2.2,-2.14a4,4 0 0 1 0,-1.15l-0.69,-0.7a34.55,34.55 0 0 1 -4.33,0.48a14.57,14.57 0 0 1 -8.48,-2.1a20.44,20.44 0 0 1 -4.63,-4.86a2.45,2.45 0 0 1 -0.27,1.94a5.69,5.69 0 0 1 -3.64,2.52a5.21,5.21 0 0 1 -3.77,-0.71a6.27,6.27 0 0 1 -0.95,-0.7a5.72,5.72 0 0 1 -1.87,-2.95a5,5 0 0 1 0.72,-3.81a4.72,4.72 0 0 1 3.37,-2.14a7.65,7.65 0 0 1 2.72,0.45c-0.55,0.56 -1.1,1.12 -0.95,1.66a1.35,1.35 0 0 0 1,0.82a1.42,1.42 0 0 0 1.3,-0.52a2.35,2.35 0 0 0 0.34,-1.47a6.07,6.07 0 0 0 -0.51,-2.39c-0.1,-0.24 -0.21,-0.49 -0.35,-0.78l2.52,-1.5c0.75,1.26 1.5,2.51 2.29,3.79a17.24,17.24 0 0 0 4.25,5.12a12.8,12.8 0 0 0 4.93,2a35.67,35.67 0 0 0 3.82,0.5a38.21,38.21 0 0 0 -0.5,-3.81a13,13 0 0 0 -2,-4.94a17.56,17.56 0 0 0 -5.13,-4.25c-1.34,-0.83 -2.67,-1.62 -4,-2.42c0.34,0.83 0.68,1.66 1.08,2.46a14.17,14.17 0 0 0 2.61,3.73a7.88,7.88 0 0 0 3.25,2.05a9,9 0 0 0 1.17,0.24c-0.54,0.53 -1.07,1.07 -3.42,3.42a11.4,11.4 0 0 0 -0.25,-1.16a7.9,7.9 0 0 0 -2,-3.26a14.22,14.22 0 0 0 -3.74,-2.61c-0.8,-0.39 -1.63,-0.74 -2.45,-1.08l0.54,-2.41l1.08,0.24l-0.66,-2.91l-3.12,-0.87l0.19,-2.57l2.52,0.18a11.44,11.44 0 0 1 0.5,-4.12a13.37,13.37 0 0 1 0.72,-1.81l2.68,1a7.9,7.9 0 0 0 -0.55,1.57a15.92,15.92 0 0 0 -0.19,4.38a10.72,10.72 0 0 0 2.58,1.5a5.82,5.82 0 0 0 2.38,0.52a2.32,2.32 0 0 0 1.48,-0.35a1.4,1.4 0 0 0 0.52,-1.29a1.36,1.36 0 0 0 -0.82,-1c-0.55,-0.16 -1.11,0.39 -1.67,0.94a7.55,7.55 0 0 1 -0.44,-2.71a4.73,4.73 0 0 1 2.13,-3.38a5,5 0 0 1 3.81,-0.71a6,6 0 0 1 3.66,2.82a5.21,5.21 0 0 1 0.7,3.77a5.66,5.66 0 0 1 -2.51,3.64a2.49,2.49 0 0 1 -1.94,0.26a21.24,21.24 0 0 1 4.86,4.63a14.66,14.66 0 0 1 2.1,8.48a38.74,38.74 0 0 1 -0.48,4.33l0.69,0.7a4,4 0 0 1 1.15,0c1,0.19 1.68,1.19 2.15,2.19a10.54,10.54 0 0 1 0.83,2.84z"/>
   <path id="svg_5" fill="#1B1B1B" d="m194.69,35.39a5.81,5.81 0 0 1 -0.77,3.46a5,5 0 0 1 -3.2,2.2a4.76,4.76 0 0 1 -3.9,-0.88a7.48,7.48 0 0 1 -1.6,-2.24c0.78,0 1.57,0 1.84,-0.51a1.34,1.34 0 0 0 -0.15,-1.31a1.42,1.42 0 0 0 -1.29,-0.55a2.38,2.38 0 0 0 -1.28,0.8a6.11,6.11 0 0 0 -1.33,2a11.22,11.22 0 0 0 -0.75,2.89a16.32,16.32 0 0 0 3.22,3a8.17,8.17 0 0 0 1.18,0.6l-0.87,2.71a12.38,12.38 0 0 1 -1.79,-0.77a11.42,11.42 0 0 1 -3.26,-2.55l-1.67,1.93l-1.94,-1.7l1.6,-2.82l-1.6,-2.53l-1.59,2.53l1.59,2.82l-1.94,1.69l-1.67,-1.91a11.32,11.32 0 0 1 -3.27,2.55a12.75,12.75 0 0 1 -1.78,0.77l-0.87,-2.71a8.72,8.72 0 0 0 1.18,-0.6a16.6,16.6 0 0 0 3.22,-3a10.73,10.73 0 0 0 -0.76,-2.89a5.93,5.93 0 0 0 -1.32,-2a2.42,2.42 0 0 0 -1.28,-0.8a1.42,1.42 0 0 0 -1.29,0.55a1.34,1.34 0 0 0 -0.15,1.31c0.27,0.5 1.06,0.51 1.84,0.51a7.48,7.48 0 0 1 -1.6,2.24a4.76,4.76 0 0 1 -3.9,0.88a5,5 0 0 1 -3.2,-2.2a5.81,5.81 0 0 1 -0.77,-3.46a6.76,6.76 0 0 1 0.18,-1.11a5.22,5.22 0 0 1 2.17,-3.17a5.67,5.67 0 0 1 4.35,-0.79a2.48,2.48 0 0 1 1.56,1.18a20.78,20.78 0 0 1 -0.17,-6.71a14.68,14.68 0 0 1 4.52,-7.48a35.22,35.22 0 0 1 3.4,-2.72l0,-1a3.71,3.71 0 0 1 -0.82,-0.81a3.62,3.62 0 0 1 0,-3.07a10.64,10.64 0 0 1 1.47,-2.63l1.75,0a10.64,10.64 0 0 1 1.47,2.63a3.62,3.62 0 0 1 0,3.07a3.71,3.71 0 0 1 -0.82,0.81l0,1a36.49,36.49 0 0 1 3.4,2.72a14.59,14.59 0 0 1 4.51,7.48a20.5,20.5 0 0 1 -0.16,6.71a2.45,2.45 0 0 1 1.56,-1.18a5.67,5.67 0 0 1 4.35,0.79a5.22,5.22 0 0 1 2.17,3.17a6.76,6.76 0 0 1 0.23,1.1zm-13.77,-1.2a17.46,17.46 0 0 0 0.62,-6.63a12.82,12.82 0 0 0 -2.07,-4.9a35.26,35.26 0 0 0 -2.35,-3a37.26,37.26 0 0 0 -2.34,3a12.82,12.82 0 0 0 -2.07,4.9a17.26,17.26 0 0 0 0.62,6.63c0.35,1.54 0.74,3 1.12,4.55c0.34,-0.83 0.68,-1.66 1,-2.5a14,14 0 0 0 0.8,-4.49a7.88,7.88 0 0 0 -0.85,-3.75a9.38,9.38 0 0 0 -0.65,-1l4.83,0a9.38,9.38 0 0 0 -0.65,1a7.88,7.88 0 0 0 -0.85,3.75a13.7,13.7 0 0 0 0.8,4.49c0.28,0.84 0.62,1.67 1,2.5c0.3,-1.51 0.69,-3.01 1.04,-4.55z"/>
   <path id="svg_6" fill="#1B1B1B" d="m193.92,311.87a5.81,5.81 0 0 1 0.77,3.46a6.76,6.76 0 0 1 -0.18,1.11a5.22,5.22 0 0 1 -2.17,3.17a5.67,5.67 0 0 1 -4.35,0.79a2.45,2.45 0 0 1 -1.56,-1.18a20.5,20.5 0 0 1 0.16,6.71a14.59,14.59 0 0 1 -4.51,7.48a36.49,36.49 0 0 1 -3.4,2.72l0,1a3.71,3.71 0 0 1 0.82,0.81a3.62,3.62 0 0 1 0,3.07a10.64,10.64 0 0 1 -1.47,2.63l-1.75,0a10.64,10.64 0 0 1 -1.47,-2.63a3.62,3.62 0 0 1 0,-3.07a3.71,3.71 0 0 1 0.82,-0.81l0,-1a35.22,35.22 0 0 1 -3.4,-2.72a14.68,14.68 0 0 1 -4.52,-7.48a20.78,20.78 0 0 1 0.17,-6.71a2.48,2.48 0 0 1 -1.56,1.18a5.67,5.67 0 0 1 -4.35,-0.79a5.22,5.22 0 0 1 -2.17,-3.17a6.76,6.76 0 0 1 -0.18,-1.11a5.81,5.81 0 0 1 0.77,-3.46a5,5 0 0 1 3.2,-2.2a4.76,4.76 0 0 1 3.9,0.88a7.48,7.48 0 0 1 1.6,2.24c-0.78,0 -1.57,0 -1.84,0.51a1.34,1.34 0 0 0 0.15,1.31a1.42,1.42 0 0 0 1.29,0.55a2.42,2.42 0 0 0 1.28,-0.8a5.93,5.93 0 0 0 1.32,-2a10.73,10.73 0 0 0 0.76,-2.89a16.6,16.6 0 0 0 -3.22,-3a8.72,8.72 0 0 0 -1.18,-0.6l0.87,-2.71a12.75,12.75 0 0 1 1.78,0.77a11.32,11.32 0 0 1 3.27,2.55l1.67,-1.91l1.94,1.69l-1.59,2.82l1.59,2.53l1.6,-2.53l-1.6,-2.82l1.94,-1.7l1.68,1.92a11.42,11.42 0 0 1 3.26,-2.55a12.38,12.38 0 0 1 1.79,-0.77l0.87,2.71a8.17,8.17 0 0 0 -1.18,0.6a16.32,16.32 0 0 0 -3.22,3a11.22,11.22 0 0 0 0.75,2.89a6.11,6.11 0 0 0 1.33,2a2.38,2.38 0 0 0 1.28,0.8a1.42,1.42 0 0 0 1.29,-0.55a1.34,1.34 0 0 0 0.15,-1.31c-0.27,-0.5 -1.06,-0.51 -1.84,-0.51a7.48,7.48 0 0 1 1.6,-2.24a4.76,4.76 0 0 1 3.9,-0.88a5,5 0 0 1 3.14,2.2zm-12.38,11.29a17.46,17.46 0 0 0 -0.62,-6.63c-0.35,-1.54 -0.74,-3 -1.12,-4.55c-0.34,0.83 -0.68,1.66 -1,2.5a13.7,13.7 0 0 0 -0.73,4.48a7.88,7.88 0 0 0 0.85,3.75a9.38,9.38 0 0 0 0.65,1l-4.83,0a9.38,9.38 0 0 0 0.65,-1a7.88,7.88 0 0 0 0.85,-3.75a14,14 0 0 0 -0.8,-4.49c-0.28,-0.84 -0.62,-1.67 -1,-2.5c-0.38,1.51 -0.77,3 -1.12,4.55a17.26,17.26 0 0 0 -0.62,6.63a12.82,12.82 0 0 0 2.07,4.9a37.26,37.26 0 0 0 2.34,3a35.26,35.26 0 0 0 2.35,-3a12.82,12.82 0 0 0 2.08,-4.89z"/>
   <path id="svg_7" fill="#1B1B1B" d="m92.48,66.96a5,5 0 0 1 -0.72,3.81a4.72,4.72 0 0 1 -3.38,2.14a7.63,7.63 0 0 1 -2.71,-0.45c0.55,-0.56 1.1,-1.12 0.94,-1.66a1.32,1.32 0 0 0 -1,-0.82a1.42,1.42 0 0 0 -1.3,0.52a2.35,2.35 0 0 0 -0.34,1.47a6.07,6.07 0 0 0 0.51,2.39a7.87,7.87 0 0 0 0.52,1.07l-2.56,1.43c-0.79,-1.33 -1.58,-2.66 -2.42,-4a17.39,17.39 0 0 0 -4.25,-5.12a12.87,12.87 0 0 0 -4.93,-2a35.67,35.67 0 0 0 -3.82,-0.5a38.21,38.21 0 0 0 0.5,3.81a13,13 0 0 0 2,4.94a17.56,17.56 0 0 0 5.13,4.25c1.34,0.83 2.67,1.62 4,2.42c-0.34,-0.83 -0.68,-1.66 -1.08,-2.46a14.17,14.17 0 0 0 -2.61,-3.73a7.88,7.88 0 0 0 -3.25,-2.05a9,9 0 0 0 -1.17,-0.24l3.42,-3.42a11.4,11.4 0 0 0 0.25,1.16a7.9,7.9 0 0 0 2,3.26a14.22,14.22 0 0 0 3.74,2.61c0.8,0.39 1.62,0.74 2.45,1.08l-0.54,2.41l-1.08,-0.24l0.66,2.91l3.12,0.87l-0.19,2.57l-2.52,-0.18a11.44,11.44 0 0 1 -0.5,4.12a15.75,15.75 0 0 1 -1.68,3.55l-2.6,-1.27a8.79,8.79 0 0 0 1.42,-3a15.92,15.92 0 0 0 0.19,-4.38a10.72,10.72 0 0 0 -2.58,-1.5a5.85,5.85 0 0 0 -2.38,-0.52a2.32,2.32 0 0 0 -1.48,0.35a1.4,1.4 0 0 0 -0.52,1.29a1.36,1.36 0 0 0 0.82,1c0.55,0.16 1.11,-0.39 1.67,-0.94a7.55,7.55 0 0 1 0.44,2.71a4.76,4.76 0 0 1 -2.13,3.38a5,5 0 0 1 -3.82,0.71a5.7,5.7 0 0 1 -2.95,-1.86a6.35,6.35 0 0 1 -0.7,-1a5.16,5.16 0 0 1 -0.7,-3.77a5.66,5.66 0 0 1 2.51,-3.64a2.49,2.49 0 0 1 1.94,-0.26a21.24,21.24 0 0 1 -4.86,-4.63a14.66,14.66 0 0 1 -2.1,-8.48a38.74,38.74 0 0 1 0.48,-4.33l-0.69,-0.7a4,4 0 0 1 -1.15,0c-1,-0.19 -1.68,-1.19 -2.15,-2.19a10.54,10.54 0 0 1 -0.82,-2.9l1.24,-1.24a10.17,10.17 0 0 1 2.89,0.83a3.61,3.61 0 0 1 2.2,2.14a4,4 0 0 1 0,1.15l0.69,0.7a34.55,34.55 0 0 1 4.33,-0.48a14.57,14.57 0 0 1 8.48,2.1a20.44,20.44 0 0 1 4.63,4.86a2.45,2.45 0 0 1 0.27,-1.94a5.69,5.69 0 0 1 3.64,-2.52a5.21,5.21 0 0 1 3.77,0.71a6.09,6.09 0 0 1 2.83,3.7z"/>
   <path id="svg_8" fill="#1B1B1B" d="m91.76,279.96a5,5 0 0 1 0.72,3.81a6.09,6.09 0 0 1 -2.82,3.65a5.21,5.21 0 0 1 -3.77,0.71a5.69,5.69 0 0 1 -3.64,-2.52a2.45,2.45 0 0 1 -0.27,-1.94a20.44,20.44 0 0 1 -4.63,4.86a14.57,14.57 0 0 1 -8.48,2.1a34.55,34.55 0 0 1 -4.33,-0.48l-0.69,0.7a4,4 0 0 1 0,1.15a3.61,3.61 0 0 1 -2.2,2.14a10.17,10.17 0 0 1 -2.89,0.83l-1.24,-1.24a10.54,10.54 0 0 1 0.82,-2.9c0.47,-1 1.19,-2 2.15,-2.19a4,4 0 0 1 1.15,0l0.69,-0.7a38.74,38.74 0 0 1 -0.48,-4.33a14.66,14.66 0 0 1 2.1,-8.48a21.24,21.24 0 0 1 4.86,-4.63a2.49,2.49 0 0 1 -1.94,-0.26a5.66,5.66 0 0 1 -2.51,-3.64a5.16,5.16 0 0 1 0.7,-3.77a6.35,6.35 0 0 1 0.7,-1a5.7,5.7 0 0 1 2.95,-1.86a5,5 0 0 1 3.82,0.71a4.76,4.76 0 0 1 2.13,3.38a7.55,7.55 0 0 1 -0.44,2.71c-0.56,-0.55 -1.12,-1.1 -1.67,-0.94a1.36,1.36 0 0 0 -0.82,1a1.4,1.4 0 0 0 0.52,1.29a2.32,2.32 0 0 0 1.48,0.35a5.85,5.85 0 0 0 2.38,-0.52a10.72,10.72 0 0 0 2.58,-1.5a15.92,15.92 0 0 0 -0.19,-4.38a8.79,8.79 0 0 0 -1.42,-3l2.59,-1.26a15.75,15.75 0 0 1 1.68,3.55a11.44,11.44 0 0 1 0.5,4.12l2.52,-0.18l0.19,2.57l-3.12,0.87l-0.66,2.91l1.08,-0.24l0.54,2.41c-0.83,0.34 -1.65,0.69 -2.45,1.08a14.22,14.22 0 0 0 -3.74,2.61a7.9,7.9 0 0 0 -2,3.26a11.4,11.4 0 0 0 -0.25,1.16l-3.42,-3.42a9,9 0 0 0 1.17,-0.24a7.88,7.88 0 0 0 3.25,-2.05a14.17,14.17 0 0 0 2.61,-3.73c0.4,-0.8 0.74,-1.63 1.08,-2.46c-1.33,0.8 -2.66,1.59 -4,2.42a17.56,17.56 0 0 0 -5.13,4.25a13,13 0 0 0 -2,4.94a38.21,38.21 0 0 0 -0.5,3.81a35.67,35.67 0 0 0 3.82,-0.5a12.87,12.87 0 0 0 4.93,-2a17.39,17.39 0 0 0 4.25,-5.12c0.84,-1.35 1.63,-2.68 2.42,-4l2.56,1.43a7.87,7.87 0 0 0 -0.52,1.07a6.07,6.07 0 0 0 -0.51,2.39a2.35,2.35 0 0 0 0.34,1.47a1.42,1.42 0 0 0 1.3,0.52a1.32,1.32 0 0 0 1,-0.82c0.16,-0.54 -0.39,-1.1 -0.94,-1.66a7.63,7.63 0 0 1 2.71,-0.45a4.72,4.72 0 0 1 3.38,2.18z"/>
   <path id="svg_9" fill="#1B1B1B" d="m46.85,165.18l2.79,0.57a15,15 0 0 1 -1.07,2.73a11.19,11.19 0 0 1 -2.56,3.27l1.91,1.66l-1.69,1.95l-2.81,-1.6l-2.53,1.6l2.53,1.6l2.81,-1.6l1.69,2l-1.91,1.6a11.19,11.19 0 0 1 2.56,3.27a15,15 0 0 1 1.07,2.73l-2.79,0.57a8.56,8.56 0 0 0 -0.83,-1.82a16,16 0 0 0 -3,-3.23a10.63,10.63 0 0 0 -2.88,0.76a6,6 0 0 0 -2.06,1.32a2.37,2.37 0 0 0 -0.79,1.29a1.4,1.4 0 0 0 0.54,1.28a1.36,1.36 0 0 0 1.32,0.16c0.5,-0.28 0.5,-1.06 0.51,-1.85a7.59,7.59 0 0 1 2.23,1.61a4.73,4.73 0 0 1 0.88,3.89a5,5 0 0 1 -2.19,3.2a5.74,5.74 0 0 1 -3.46,0.77a6.88,6.88 0 0 1 -1.12,-0.18a5.16,5.16 0 0 1 -3.16,-2.17a5.66,5.66 0 0 1 -0.8,-4.34a2.49,2.49 0 0 1 1.19,-1.57a20.8,20.8 0 0 1 -6.71,0.17a14.66,14.66 0 0 1 -7.48,-4.51a36.16,36.16 0 0 1 -2.72,-3.4l-1,0a3.89,3.89 0 0 1 -0.81,0.81a3.56,3.56 0 0 1 -3.06,0a10.27,10.27 0 0 1 -2.63,-1.46l0,-1.76a10.27,10.27 0 0 1 2.63,-1.46a3.56,3.56 0 0 1 3.06,0a3.89,3.89 0 0 1 0.81,0.81l1,0a36.16,36.16 0 0 1 2.72,-3.4a14.66,14.66 0 0 1 7.48,-4.51a20.8,20.8 0 0 1 6.71,0.17a2.49,2.49 0 0 1 -1.19,-1.57a5.66,5.66 0 0 1 0.8,-4.34a5.16,5.16 0 0 1 3.23,-2.24a6.88,6.88 0 0 1 1.12,-0.18a5.74,5.74 0 0 1 3.46,0.77a5,5 0 0 1 2.19,3.2a4.73,4.73 0 0 1 -0.88,3.89a7.59,7.59 0 0 1 -2.23,1.61c0,-0.79 0,-1.57 -0.51,-1.85a1.36,1.36 0 0 0 -1.32,0.16a1.4,1.4 0 0 0 -0.54,1.28a2.37,2.37 0 0 0 0.79,1.29a6,6 0 0 0 2.06,1.32a10.63,10.63 0 0 0 2.88,0.76a16,16 0 0 0 3,-3.23a8.56,8.56 0 0 0 0.76,-1.8zm-8.85,8.47c0.85,-0.28 1.67,-0.63 2.5,-1c-1.5,-0.38 -3,-0.76 -4.54,-1.12a17.46,17.46 0 0 0 -6.63,-0.62a12.71,12.71 0 0 0 -4.9,2.08a36.91,36.91 0 0 0 -3.06,2.34a36.91,36.91 0 0 0 3.06,2.34a12.71,12.71 0 0 0 4.9,2.08a17.46,17.46 0 0 0 6.63,-0.62c1.54,-0.36 3,-0.74 4.54,-1.12c-0.83,-0.34 -1.65,-0.69 -2.5,-1a14.19,14.19 0 0 0 -4.49,-0.8a7.89,7.89 0 0 0 -3.75,0.86a10.53,10.53 0 0 0 -1,0.65l0,-4.76a10.53,10.53 0 0 0 1,0.65a7.89,7.89 0 0 0 3.75,0.86a14.19,14.19 0 0 0 4.49,-0.82z"/>
  </g>
 </g>
</svg>