<svg xmlns="http://www.w3.org/2000/svg" width="250" height="250"><style>.a{fill:#1B1B1B;}</style><title>Islamic</title><path d="m300.9 124.1l51.2 51.3 -51.2 51.3 0 72.5 -72.5 0 -51.3 51.3 -51.2-51.3 -72.5 0 0-72.5 -51.3-51.3q25.7-25.6 51.3-51.3l0-72.5 72.5 0 51.2-51.3 51.3 51.3 72.5 0 0 72.5zm44.5 52.1l0-1.8q-17-16.9-33.9-33.9a9.8 9.8 0 0 1 0.8 1.8 8.4 8.4 0 0 1 0.4 3.6 14.1 14.1 0 0 1-0.3 1.6 7.4 7.4 0 0 1 2.6 0.5 6.1 6.1 0 0 1 2.2 2.2 7.7 7.7 0 0 1 1.1 2.5 3.9 3.9 0 0 1-0.2 2.5 4.9 4.9 0 0 1-0.9 1.1 8.2 8.2 0 0 0-1.7-1.6 5.4 5.4 0 0 0-3.1-0.7 5.7 5.7 0 0 0-3.4 1.2c-1.3 1.1-1.9 3.1-2.1 5a12.2 12.2 0 0 0 0.4 4.9l-2.8 0.6a28 28 0 0 1-0.9-5 22.5 22.5 0 0 1 0.3-8.1c0.4-1.5 1-3 1.4-4.5a14.5 14.5 0 0 0-0.5-8.2 10.9 10.9 0 0 0-2.3-3.9 7.8 7.8 0 0 0-1.4-1.1l-0.3-0.2 0 39a4.3 4.3 0 0 1 0.9-0.6 3.7 3.7 0 0 1 2.5-0.3 6 6 0 0 1 1.6 0.9l0.5-0.4 1.7 2 -1.7 2 -0.5-0.4a6 6 0 0 1-1.6 0.9 3.7 3.7 0 0 1-2.5-0.3 4.3 4.3 0 0 1-0.9-0.6l0 39 0.3-0.2a7.8 7.8 0 0 0 1.4-1.1 10.9 10.9 0 0 0 2.3-3.9 14.5 14.5 0 0 0 0.6-8.2c-0.4-1.6-1-3-1.4-4.5a22.5 22.5 0 0 1-0.3-8.1 28 28 0 0 1 0.9-5l2.8 0.6a12.2 12.2 0 0 0-0.4 4.9c0.2 1.9 0.7 3.9 2.1 5a5.7 5.7 0 0 0 3.4 1.2 5.4 5.4 0 0 0 3.1-0.7 8.2 8.2 0 0 0 1.7-1.6 4.9 4.9 0 0 1 0.9 1.1 3.9 3.9 0 0 1 0.2 2.5 7.7 7.7 0 0 1-1.1 2.5 6.1 6.1 0 0 1-2.2 2.2 7.4 7.4 0 0 1-2.6 0.5 14.1 14.1 0 0 1 0.3 1.6 8.4 8.4 0 0 1-0.3 3.6 9.8 9.8 0 0 1-0.8 1.8q17-16.9 33.9-33.9zm-44.6 44.6l4.4-4.4a5.6 5.6 0 0 1-3.6 0.9 4.2 4.2 0 0 1-0.8-0.2l0 3.8zm4.4-86.5l-4.4-4.4 0 3.8a4.2 4.2 0 0 1 0.8-0.2 5.6 5.6 0 0 1 3.6 0.9zm-8.5 159.4l0-47.9a10.1 10.1 0 0 1-0.7 1.9 8.7 8.7 0 0 1-2.3 2.8 15.8 15.8 0 0 1-1.3 0.9 7.2 7.2 0 0 1 1.5 2.2 6.1 6.1 0 0 1 0 3.1 7.5 7.5 0 0 1-1 2.6 3.9 3.9 0 0 1-1.9 1.7 5 5 0 0 1-1.4 0.2 8.3 8.3 0 0 0-0.1-2.3 5.4 5.4 0 0 0-1.7-2.7 5.7 5.7 0 0 0-3.2-1.5c-1.7-0.1-3.5 0.8-5 2.1a12 12 0 0 0-3.3 4.1l-2.7-1a26.6 26.6 0 0 1 3.3-5 22.9 22.9 0 0 1 5.9-5.5c1.4-0.8 2.9-1.4 4.2-2.2a14.4 14.4 0 0 0 5.4-6.2 10.9 10.9 0 0 0 1.1-4.4 7.3 7.3 0 0 0-0.2-1.8l-0.1-0.4 -27.6 27.6a4.7 4.7 0 0 1 1.1 0.2 3.7 3.7 0 0 1 2 1.6 5.8 5.8 0 0 1 0.5 1.7l0.6 0.1 -0.2 2.6 0.9 3.1 1.8 0.4 -0.5 2.4 0.1 0.2 -2.5 1.5a14.5 14.5 0 0 0-1.2-1.8 16.3 16.3 0 0 0-4.4 0.2 10.7 10.7 0 0 0-5.6 3.9c-1.2 1.5-2.2 3.3-2.1 5a5.7 5.7 0 0 0 1.5 3.2 5.4 5.4 0 0 0 2.7 1.7 8.7 8.7 0 0 0 2.3 0.1 5 5 0 0 1-0.2 1.4 3.8 3.8 0 0 1-1.6 1.9 7.7 7.7 0 0 1-2.5 1 6.1 6.1 0 0 1-3.1 0 7 7 0 0 1-2.2-1.5c-0.3 0.5-0.6 0.9-0.9 1.3a8.5 8.5 0 0 1-2.8 2.3 9.6 9.6 0 0 1-1.9 0.7l47.9 0c-0.5-0.1-1-0.2-1.4-0.3l2.7-0.9zm0-56.8l0-6.3 -2.6 2.7a4.2 4.2 0 0 1 0.8 0.4 5.6 5.6 0 0 1 1.9 3.2zm0-116.9l0-6.3a5.6 5.6 0 0 1-1.9 3.2 4.2 4.2 0 0 1-0.7 0.4l2.7 2.7zm0-15.1l0-48 -2.6-0.9c0.5-0.1 1-0.2 1.5-0.3l-48 0a9.6 9.6 0 0 1 1.9 0.7 8.5 8.5 0 0 1 2.8 2.3c0.3 0.4 0.6 0.9 0.9 1.3a7 7 0 0 1 2.2-1.5 6.1 6.1 0 0 1 3.1 0 7.7 7.7 0 0 1 2.6 1 3.8 3.8 0 0 1 1.7 1.9 5 5 0 0 1 0.2 1.4 8.7 8.7 0 0 0-2.3 0.1 5.4 5.4 0 0 0-2.7 1.7 5.7 5.7 0 0 0-1.5 3.2c-0.1 1.8 0.8 3.5 2.1 5a10.7 10.7 0 0 0 5.6 3.9 16.3 16.3 0 0 0 4.4 0.2 14.5 14.5 0 0 0 1.2-1.8l2.5 1.5 -0.1 0.2 0.5 2.4 -1.8 0.4 -0.9 3.1 0.2 2.6 -0.6 0.1a5.8 5.8 0 0 1-0.5 1.7 3.7 3.7 0 0 1-2 1.6 4.7 4.7 0 0 1-1.1 0.2l27.6 27.6 0.1-0.4a7.3 7.3 0 0 0 0.2-1.8 10.9 10.9 0 0 0-1.1-4.4 14.4 14.4 0 0 0-5.4-6.2c-1.4-0.8-2.9-1.4-4.2-2.2a22.9 22.9 0 0 1-5.9-5.5 26.6 26.6 0 0 1-3.3-5l2.7-1a12 12 0 0 0 3.3 4c1.5 1.2 3.3 2.2 5 2.1a5.7 5.7 0 0 0 3.2-1.5 5.4 5.4 0 0 0 1.7-2.7 8.3 8.3 0 0 0 0.1-2.3 5 5 0 0 1 1.4 0.2 3.9 3.9 0 0 1 1.9 1.7 7.5 7.5 0 0 1 1 2.6 6.1 6.1 0 0 1 0 3.1 7.2 7.2 0 0 1-1.4 2.2 15.8 15.8 0 0 1 1.3 0.9 8.7 8.7 0 0 1 2.3 2.8 10.1 10.1 0 0 1 0.7 1.9l0 0zm-4.2 118.2l0-25.5 -6.6-6.6 -7.1 7.1 0 19.3 -13.6 13.6 0 10.1 9.3 0 18-18zm0-31.3l0-5.9 -1.4 0 -2.2 2.2 3.7 3.7zm0-10.1l0-12.8 -3.2 0 -3.4-3.4 -3.4 3.5 -3.7 0 0 3.7 -2.7 2.7 2.7 2.7 0 3.7 3.7 0 3.5 3.5 3.4-3.4 3.2 0zm0-16.9l0-5.9 -3.7 3.7 2.2 2.2 1.5 0zm0-11.8l0-25.5 -18-18 -9.3 0 0 10.1 13.6 13.6 0 19.3 7.1 7.1 6.6-6.6zm-11.8 11.8l2.2-2.2 -4.2-4.2 0 6.4 2 0zm2.2 23.3l-2.2-2.2 -2 0 0 6.4 4.2-4.2zm-8.3 27.6l0-13.4 -4.6 4.6 -5-2 3.4 8.3 -8.3 3.4 5 2 0 6.6 9.5-9.5zm0-19.3l0-10.6 -9.1 0 -5.9 5.9 3.2 7.7 6.2 2.6 5.6-5.6zm0-14.7l0-1.9 -1.5-1.5 -3.5 3.5 5 0zm0-10.8l0-1.9 -5 0 3.5 3.5 1.5-1.5zm0-6.1l0-10.5 -5.6-5.6 -6.2 2.6 -3.2 7.7 5.9 5.9 9.1 0zm0-16.4l0-13.4 -9.5-9.5 0 6.6 -5 2 8.3 3.4 -3.4 8.3 5-2 4.6 4.6zm-8.5 101.1l4.2-4.2 -5.2 0 0 3.2 1 1zm-1-144.1l5.2 0 -4.2-4.2 -1 1 0 3.2zm-1.4 76.4l6.4-6.4 -6.4-6.4 -8.3 0 -2.6 6.4 2.7 6.4 8.3 0zm3.3-98.5c0.1-1 0.2-2.1 0.2-3.1a11.2 11.2 0 0 1-4.1-0.5 21.4 21.4 0 0 1-6.8-4.1 22.5 22.5 0 0 1-5.5-5.9c-0.8-1.3-1.4-2.8-2.2-4.2a14.4 14.4 0 0 0-6.1-5.4 10.7 10.7 0 0 0-4.4-1.1 7.3 7.3 0 0 0-1.8 0.2l-0.4 0.1 27.6 27.6a3.8 3.8 0 0 1 0.2-1.1 3.6 3.6 0 0 1 1.6-2 5.7 5.7 0 0 1 1.8-0.5zm0.2 187.4c-0.1-1-0.1-2.1-0.2-3.1a5.7 5.7 0 0 1-1.7-0.5 3.6 3.6 0 0 1-1.6-2 3.8 3.8 0 0 1-0.2-1.1l-27.6 27.6 0.4 0.1a7.3 7.3 0 0 0 1.8 0.2 10.7 10.7 0 0 0 4.4-1.1 14.4 14.4 0 0 0 6.2-5.4c0.8-1.3 1.4-2.8 2.2-4.2a22.5 22.5 0 0 1 5.5-5.9 21.4 21.4 0 0 1 6.8-4.1 11.2 11.2 0 0 1 4.1-0.5l0 0zm-13.1-9.1l9.1-9.1 -2.2-2.2 0-4.9 -4.9 0 -2.6-2.6 -2.6 2.6 -3.9 0 0 3.9 -2.6 2.6 2.6 2.6 0 4.9 4.9 0 2.3 2.2zm6.8-160.9l2.2-2.2 -9.1-9.1 -2.2 2.2 -4.9 0 0 4.9 -2.6 2.6 2.6 2.6 0 3.9 3.9 0 2.6 2.6 2.6-2.6 4.9 0 0-4.9zm-1.4 47.5l3.4-8.3 -8.3-3.4 -7.7 3.2 0 6.9 4.9 4.9 7.7-3.2zm3.4 62.9l-3.4-8.3 -7.7-3.2 -4.9 4.8 0 6.9 7.7 3.2 8.3-3.4zm-2 30.2l0-5.9 -4.5 4.5 1.4 1.4 3.2 0zm0-11.8l0-7.9 -6.2-2.6 -7.8 3.2 0 8.3 6.5 6.5 7.5-7.4zm0-100.1l0-7.9 -7.5-7.5 -6.5 6.5 0 8.3 7.7 3.2 6.3-2.6zm0-13.8l0-5.9 -3.1 0 -1.4 1.4 4.6 4.5zm-6.3 75.4l4.9-4.9 -7 0 -2.1-5.1 -2.1 5.1 -18.5 0 17 7.1 0 5.6 3.9-3.9 6.4 2.7 -2.6-6.4zm-2-26l7 0 -4.9-4.9 2.7-6.4 -6.4 2.7 -3.9-3.9 0 5.6 -17 7.1 18.5 0 2.1 5.1 2.1-5.1zm-2.4-77.5l1-1 -4.3-4.2 0 5.2 3.3 0zm-3.3 181.2l4.2-4.2 -1-1 -3.2 0 0 5.2zm0-154.1l3.5-3.5 -1.4-1.4 -2.1 0 0 4.9zm2.2 126.7l1.4-1.4 -3.5-3.5 0 4.9 2.2 0zm-6.3-104.4l6.4-2.7 -6.4-2.7 0-7 -4.9 4.9 -5.1-2.1 2.1 5.1 -13 13.1 17.1-7.1 3.9 3.9 0-5.5zm0 82.5l6.4-2.7 -6.4-2.7 0-5.6 -3.9 3.9 -17-7.1 13.1 13.1 -2.1 5.1 5.1-2.1 4.9 4.9 0-7zm5.4-43.9l-2.6-6.4 -25.7 0 -15.5 6.4 15.5 6.4 25.7 0 2.7-6.4zm-5.4 97.4l0-9.3 -10 0 -13.6 13.6 -19.3 0 -7.1 7.1 6.6 6.6 25.5 0 18-18zm0-13.5l0-3.2 -1.4-1.4 -4.5 4.5 5.9 0zm0-11.8l0-2.1 -4.9 0 3.5 3.5 1.4-1.4zm0-6.3l0-9.1 -5.8-5.9 -6.4 2.7 -2.6 6.4 5.9 5.9 9 0zm0-122.6l0-9.1 -9 0 -5.9 5.9 2.7 6.4 6.4 2.7 5.8-5.9zm0-13.2l0-2.1 -1.4-1.4 -3.5 3.5 4.9 0zm0-10.8l0-3.2 -5.9 0 4.5 4.5 1.4-1.4zm0-7.3l0-9.4 -18-18 -25.5 0 -6.6 6.6 7.1 7.1 19.3 0 13.6 13.6 10.1 0zm0 115.3l0-6.8 -23.7-9.8 -16.6 0 11.7 11.7 23.8 9.8 4.9-4.8zm0-47.6l0-6.8 -4.8-4.8 -23.7 9.8 -11.7 11.7 16.5 0 23.7-9.8zm-4.1-99.2l-6.3 0 2.7 2.7a4.6 4.6 0 0 1 0.4-0.8 5.6 5.6 0 0 1 3.2-1.9l0 0zm-6.3 239.2l6.3 0a5.6 5.6 0 0 1-3.2-1.9 4.6 4.6 0 0 1-0.4-0.8l-2.7 2.7zm-1.3-35.7l7.5-7.5 -6.5-6.5 -8.3 0 -3.2 7.7 2.6 6.2 7.9 0zm1-153.8l6.5-6.5 -7.5-7.5 -7.9 0 -2.6 6.2 3.2 7.7 8.3 0zm-2 26l-2.6-6.4 -6.4-2.6 -18.2 18.2 -6.4 15.5 15.5-6.4 18.2-18.2zm-2.6 94.3l2.7-6.4 -18.2-18.2 -15.5-6.4 6.4 15.5 18.1 18.2 6.4-2.7zm-4.4-111.2l4.9-4.9 -7 0 -2.7-6.4 -2.7 6.4 -5.5 0 3.9 3.9 -7.1 17 13-13 5.1 2.1 -2.1-5.1zm-2 126.7l7 0 -5-4.9 2.1-5.1 -5.1 2.1 -13-13 7.1 17 -3.9 3.9 5.6 0 2.7 6.4 2.6-6.4zm-3.5 31.7l9.5-9.5 -6.6 0 -2-4.9 -3.4 8.3 -8.3-3.4 2.1 5 -4.7 4.6 13.5 0zm2.9-185.5l6.6 0 -9.5-9.5 -13.5 0 4.6 4.6 -2 5 8.3-3.4 3.4 8.3 2.1-5zm-2.3 216.2l4.4-4.4 -3.8 0a4.8 4.8 0 0 1 0.2 0.8 5.7 5.7 0 0 1-0.9 3.6l0 0zm0.7-251.8l3.8 0 -4.4-4.4a5.7 5.7 0 0 1 0.9 3.6 4.8 4.8 0 0 1-0.3 0.8l0 0zm-1.1 0a3.4 3.4 0 0 0-0.2-0.3 6.8 6.8 0 0 0-1.1-1.4 10.7 10.7 0 0 0-3.9-2.3 14.3 14.3 0 0 0-8.2-0.5c-1.5 0.4-3 1-4.5 1.4a23 23 0 0 1-8.1 0.3 26.2 26.2 0 0 1-5.9-1.2l0.9-2.7a11.8 11.8 0 0 0 5.5 0.6c1.9-0.2 3.9-0.7 5-2.1a5.7 5.7 0 0 0 1.2-3.4 5.3 5.3 0 0 0-0.7-3.1 8.5 8.5 0 0 0-1.6-1.7 5.4 5.4 0 0 1 1.1-0.9 3.8 3.8 0 0 1 2.5-0.2 7.6 7.6 0 0 1 2.5 1.1 6.1 6.1 0 0 1 2.2 2.2 7.2 7.2 0 0 1 0.6 2.6 15.7 15.7 0 0 1 1.6-0.3 8.6 8.6 0 0 1 3.6 0.4 9.9 9.9 0 0 1 1.8 0.8l-33.9-33.9 -1.7 0 -33.9 33.9a9.9 9.9 0 0 1 1.8-0.8 8.6 8.6 0 0 1 3.6-0.3 15.7 15.7 0 0 1 1.6 0.3 7.2 7.2 0 0 1 0.6-2.6 6.1 6.1 0 0 1 2.2-2.2 7.6 7.6 0 0 1 2.5-1.1 3.8 3.8 0 0 1 2.5 0.2 5.1 5.1 0 0 1 1.1 0.9 8.5 8.5 0 0 0-1.6 1.7 5.3 5.3 0 0 0-0.7 3.1 5.6 5.6 0 0 0 1.2 3.4c1.1 1.3 3.1 1.9 5 2.1a11.8 11.8 0 0 0 5.5-0.6l0.9 2.7a26.1 26.1 0 0 1-5.9 1.2 23 23 0 0 1-8.1-0.3c-1.5-0.4-3-1.1-4.5-1.4a14.3 14.3 0 0 0-8.2 0.6 10.7 10.7 0 0 0-3.9 2.3 7.2 7.2 0 0 0-1.1 1.4l-0.2 0.3 39 0a4.6 4.6 0 0 1-0.6-0.9 3.6 3.6 0 0 1-0.2-2.5 5.6 5.6 0 0 1 0.9-1.6l-0.4-0.5 1.9-1.7 1.9 1.7 -0.4 0.5a5.9 5.9 0 0 1 0.9 1.6 3.6 3.6 0 0 1-0.3 2.5 4.2 4.2 0 0 1-0.6 0.9l39.1 0zm-0.2 247.7a3.4 3.4 0 0 0 0.2-0.3l-39 0a4.2 4.2 0 0 1 0.6 0.9 3.6 3.6 0 0 1 0.3 2.5 5.9 5.9 0 0 1-0.9 1.6l0.4 0.5 -1.9 1.7 -1.9-1.7 0.4-0.5a5.6 5.6 0 0 1-0.9-1.6 3.6 3.6 0 0 1 0.3-2.5 4.6 4.6 0 0 1 0.6-0.9l-39 0 0.2 0.3a7.2 7.2 0 0 0 1.2 1.4 10.7 10.7 0 0 0 3.9 2.3 14.3 14.3 0 0 0 8.2 0.6c1.6-0.4 3-1 4.5-1.4a23 23 0 0 1 8.1-0.3 26.1 26.1 0 0 1 5.9 1.2l-0.9 2.7a11.8 11.8 0 0 0-5.5-0.6c-1.9 0.2-3.9 0.7-5 2.1a5.6 5.6 0 0 0-1.2 3.4 5.3 5.3 0 0 0 0.7 3.1 8.5 8.5 0 0 0 1.6 1.7 5.1 5.1 0 0 1-1.1 0.9 3.8 3.8 0 0 1-2.5 0.2 7.6 7.6 0 0 1-2.5-1.1 6.1 6.1 0 0 1-2.2-2.2 7.2 7.2 0 0 1-0.5-2.6 15.7 15.7 0 0 1-1.5 0.3 8.6 8.6 0 0 1-3.6-0.3 9.9 9.9 0 0 1-1.8-0.8l33.9 33.9 1.8 0 33.9-33.9a9.9 9.9 0 0 1-1.8 0.8 8.6 8.6 0 0 1-3.6 0.4 15.7 15.7 0 0 1-1.5-0.3 7.2 7.2 0 0 1-0.5 2.6 6.1 6.1 0 0 1-2.2 2.2 7.6 7.6 0 0 1-2.5 1.1 3.8 3.8 0 0 1-2.5-0.2 5.4 5.4 0 0 1-1.1-0.9 8.5 8.5 0 0 0 1.6-1.7 5.3 5.3 0 0 0 0.7-3.1 5.7 5.7 0 0 0-1.2-3.4c-1.1-1.3-3.1-1.9-5-2.1a11.8 11.8 0 0 0-5.5 0.6l-0.9-2.7a26.2 26.2 0 0 1 5.9-1.2 23 23 0 0 1 8.1 0.3c1.5 0.4 3 1.1 4.5 1.4a14.3 14.3 0 0 0 8.2-0.5 10.7 10.7 0 0 0 3.9-2.3 6.8 6.8 0 0 0 1.1-1.4l0 0zm-1.3-201.7l-3.4-8.3 -8.3 3.4 -3.2 7.7 4.8 4.8 6.9 0 3.2-7.7zm0 155.3l-3.2-7.7 -6.9 0 -4.8 4.8 3.2 7.7 8.3 3.4 3.5-8.3zm-16.8-114.8l9.8-23.7 -4.8-4.8 -6.8 0 -9.8 23.7 0 16.5 11.7-11.7zm9.8 98.1l-9.8-23.7 -11.7-11.7 0 16.5 9.8 23.7 6.9 0 4.8-4.8zm-10.1-63.1l10.1-4.2 -10.9 0 -2.7 2.7 3.5 1.5zm-0.8 8.6l10.9 0 -10-4.2 -3.5 1.5 2.7 2.7zm-1.6-16.8l7.7-7.7 -10 4.2 -1.5 3.5 3.8 0zm-2.3 24.4l10 4.2 -7.7-7.7 -3.8 0 1.5 3.5zm9.6-105.8l-5.6-5.6 -10.6 0 0 9.1 5.9 5.9 7.7-3.2 2.6-6.2zm0 183.8l-2.6-6.2 -7.7-3.2 -5.9 5.9 0 9.2 10.6 0 5.6-5.6zm-3.6-161.8l-3.9-3.9 2.7-6.4 -6.4 2.7 -4.9-4.9 0 7 -5.1 2.1 5.1 2.1 0 18.5 7.1-17 5.6 0zm-3.9 143.7l3.9-3.9 -5.5 0 -7.1-17 0 18.5 -5.1 2.1 5.1 2.1 0 7 4.9-4.9 6.4 2.7 -2.7-6.5zm-5.3-90.9l4.2-10 -7.7 7.7 0 3.8 3.5-1.5zm4.2 44.3l-4.2-10 -3.5-1.5 0 3.8 7.7 7.7zm-5.3 78.7l4.2-4.2 -6.4 0 0 1.9 2.2 2.3zm-2.2-207.5l6.4 0 -4.2-4.2 -2.2 2.2 0 2zm0.6 104l5.4-2.2 -5.4-2.2 4.1-4.1 -5.8 0 2.3-5.4 -5.4 2.2 0-5.8 -4.1 4.1 -2.2-5.4 -2.2 5.4 -4.1-4.1 0 5.8 -5.4-2.2 2.2 5.4 -5.8 0 4.1 4.1 -5.4 2.2 5.4 2.3 -4.1 4.1 5.8 0 -2.3 5.2 5.4-2.2 0 5.8 4.1-4.1 2.2 5.4 2.3-5.4 4.1 4.1 0-5.8 5.4 2.3 -2.2-5.4 5.8 0 -4.1-4zm1.6-114l3.7-3.7 -5.9 0 0 1.5 2.2 2.2zm-2.2 227.1l5.9 0 -3.7-3.7 -2.2 2.2 0 1.5zm-0.7-224.2l-3.4-3.4 0-3.2 -12.8 0 0 3.2 -3.4 3.5 3.4 3.4 0 3.7 3.7 0 2.7 2.7 2.7-2.7 3.7 0 0-3.7 3.5-3.4zm-3.4 221l3.4-3.4 -3.4-3.4 0-3.7 -3.7 0 -2.8-2.8 -2.7 2.7 -3.7 0 0 3.7 -3.4 3.4 3.4 3.5 0 3.2 12.8 0 0.1-3.1zm0-14.7l0-5 -3.5 3.4 1.5 1.5 2 0zm0-10.9l0-8.3 -6.5-2.7 -6.4 2.7 0 8.3 6.4 6.4 6.5-6.4zm0-18.1l0-25.7 -6.5-15.5 -6.4 15.5 0 25.7 6.4 2.7 6.5-2.6zm0-36.5l0-10.9 -2.7-2.7 -1.5 3.5 4.2 10.1zm0-53.1l0-10.9 -4.2 10 1.5 3.5 2.7-2.6zm0-21.7l0-25.7 -6.5-2.7 -6.4 2.7 0 25.7 6.4 15.4 6.5-15.4zm0-35.5l0-8.3 -6.5-6.4 -6.4 6.4 0 8.3 6.4 2.7 6.5-2.6zm0-14.2l0-5 -2 0 -1.5 1.5 3.5 3.5zm-8.6 70.6l-4.2-10 0 10.9 2.7 2.7 1.5-3.6zm0 43.9l-1.5-3.5 -2.7 2.7 0 10.8 4.2-10zm-4.2-114.5l3.5-3.5 -1.5-1.5 -2 0 0.1 5zm2 190.1l1.5-1.5 -3.5-3.5 0 5 2 0zm-6.2-168.9l5.1-2.1 -5.1-2.1 0-7 -4.9 4.9 -6.4-2.7 2.7 6.4 -3.9 3.9 5.6 0 7.1 17.1 0-18.4zm0 146.9l5.1-2.1 -5.1-2.1 0-18.4 -7.1 17.1 -5.6 0 3.9 3.9 -2.7 6.4 6.4-2.7 4.9 4.9 0-7zm0.1-56.1l0-3.9 -3.5 1.5 -4.1 10.1 7.6-7.7zm0-35.1l0-3.8 -7.6-7.7 4.2 10 3.5 1.5zm-0.1 131l0-1.4 -2.2-2.2 -3.7 3.7 5.9 0zm0-11.8l0-1.9 -6.4 0 4.2 4.2 2.2-2.2zm0-6.1l0-9.1 -5.9-5.9 -7.7 3.2 -2.6 6.2 5.6 5.6 10.6 0zm0-55.5l0-16.5 -11.7 11.7 -9.8 23.7 4.8 4.8 6.9 0 9.8-23.8zm0-67.5l0-16.5 -9.8-23.7 -6.8 0 -4.8 4.8 9.8 23.7 11.7 11.7zm0-76.2l0-1.9 -2.2-2.2 -4.2 4.2 6.4 0zm0-12.3l0-1.4 -5.9 0 3.7 3.7 2.2-2.2zm0 25.6l0-9.2 -10.6 0 -5.6 5.6 2.6 6.2 7.7 3.2 5.9-5.9zm-5.1 78l-1.5-3.5 -10-4.2 7.7 7.7 3.8 0zm-1.5 24.4l1.5-3.5 -3.8 0 -7.7 7.7 10-4.2zm-5.2 101.5l6.6-6.6 -7.1-7.1 -19.3 0 -13.6-13.6 -10.1 0 0 9.4 18 18 25.5 0zm-0.5-217.1l7.1-7.1 -6.6-6.6 -25.5 0 -18 18 0 9.4 10.1 0 13.6-13.6 19.3 0zm1.7 108.1l2.7-2.7 -3.5-1.5 -10 4.2 10.8 0zm-0.8-8.6l3.5-1.5 -2.7-2.7 -10.9 0 10.1 4.2zm2.6-17.2l-6.4-15.5 -18.2-18.2 -6.4 2.7 -2.6 6.4 18.2 18.2 15.5 6.4zm-6.4 54.2l6.4-15.5 -15.5 6.4 -18.2 18.2 2.7 6.4 6.4 2.7 18.2-18.2zm1.6-109.6l-3.2-7.7 -8.3-3.4 -3.5 8.3 3.2 7.7 6.9 0 4.9-4.9zm-3.2 157.3l3.2-7.7 -4.8-4.8 -6.8 0 -3.2 7.7 3.4 8.3 8.3-3.4zm1.9-93l-11.7-11.7 -23.7-9.8 -4.8 4.8 0 6.8 23.7 9.9 16.6 0zm-11.7 32.8l11.7-11.7 -16.6 0 -23.7 9.8 0 6.9 4.9 4.8 23.8-9.8zm5.5-115.1l4.7-4.6 -13.4 0 -9.5 9.5 6.6 0 2.1 5 3.4-8.3 8.3 3.4 -2.1-5zm-8.8 190.4l13.4 0 -4.6-4.6 2.1-5 -8.3 3.4 -3.4-8.3 -2 5 -6.6 0 9.5 9.5zm-2.4-91.1l15.5-6.4 -15.5-6.4 -25.7 0 -2.6 6.4 2.7 6.4 25.7 0zm12.9-51.2l-7.1-17 3.9-3.9 -5.5 0 -2.7-6.4 -2.7 6.4 -7 0 4.9 4.9 -2 5.1 5.1-2.1 13 13.1zm-7.1 106.7l7.1-17 -13 13 -5.1-2.1 2.1 5.1 -4.9 4.9 7 0 2.7 6.4 2.7-6.4 5.5 0 -3.9-3.9zm-4-190l-4.4 4.4 3.8 0a4.8 4.8 0 0 1-0.2-0.8 5.6 5.6 0 0 1 0.8-3.6l0.1 0zm-4.4 251.8l4.4 4.4a5.6 5.6 0 0 1-0.9-3.6 4.8 4.8 0 0 1 0.2-0.8l-3.8 0zm1.9-201.3l-2.6-6.2 -8 0 -7.4 7.5 6.5 6.5 8.3 0 3.2-7.7zm0 155.3l-3.2-7.7 -8.3 0 -6.5 6.5 7.5 7.5 7.9 0 2.6-6.2zm-14.4-34.7l13-13 -17 7.1 -3.9-3.9 0 5.5 -6.4 2.7 6.4 2.7 0 7 4.9-4.9 5.1 2.1 -2.1-5.1zm-4-79.9l17 7.1 -13-13 2.1-5.1 -5.1 2.1 -4.9-4.9 0 7 -6.4 2.7 6.4 2.7 0 5.6 3.9-4zm8.4-16.5l2.7-6.4 -5.9-5.9 -9.1 0 0 9.1 5.9 5.9 6.4-2.6zm2.7 113.4l-2.7-6.4 -6.4-2.6 -5.9 5.9 0 9.1 9.1 0 5.9-5.9zm-20.4-70.5l18.4 0 -17-7.1 0-5.6 -3.9 3.9 -6.4-2.7 2.7 6.4 -4.9 4.9 7 0 2.1 5.1 2.1-5.1zm1.4 28.1l17-7.1 -18.4 0 -2.1-5.1 -2.1 5.1 -7 0 4.9 4.9 -2.7 6.4 6.4-2.7 3.9 3.9 0-5.6zm11.8-134.5l2.7-2.7 -6.3 0a5.7 5.7 0 0 1 3.2 1.9 4.6 4.6 0 0 1 0.4 0.8zm2.7 236.5l-2.7-2.7a4.6 4.6 0 0 1-0.4 0.8 5.7 5.7 0 0 1-3.2 1.9l6.3 0zm-31.1-208.1l27.6-27.6 -0.4-0.1a7.3 7.3 0 0 0-1.8-0.2 10.7 10.7 0 0 0-4.4 1.1 14.4 14.4 0 0 0-6.1 5.4c-0.8 1.4-1.4 2.9-2.2 4.2a22.6 22.6 0 0 1-5.5 5.9 21.4 21.4 0 0 1-6.8 4.1 11.2 11.2 0 0 1-4.1 0.5c0.1 1.1 0.2 2.1 0.2 3.2a5.7 5.7 0 0 1 1.7 0.5 3.6 3.6 0 0 1 1.6 2 4.2 4.2 0 0 1 0.2 1.1zm27.2 204.8l0.4-0.1 -27.6-27.6a4.2 4.2 0 0 1-0.2 1.1 3.6 3.6 0 0 1-1.6 2 5.7 5.7 0 0 1-1.7 0.5c-0.1 1.1-0.1 2.1-0.2 3.2a11.2 11.2 0 0 1 4.1 0.5 21.4 21.4 0 0 1 6.8 4.1 22.6 22.6 0 0 1 5.5 5.9c0.8 1.4 1.4 2.9 2.2 4.2a14.4 14.4 0 0 0 6.2 5.4 10.7 10.7 0 0 0 4.4 1.1 7.3 7.3 0 0 0 1.8-0.2zm-5.3-195.6l4.5-4.5 -5.9 0 0 3.2 1.4 1.4zm4.5 163.2l-4.5-4.5 -1.4 1.4 0 3.2 5.9 0zm-4.5-10.4l3.5-3.5 -4.9 0 0 2.1 1.4 1.4zm-1.4-143.4l4.9 0 -3.5-3.5 -1.4 1.4 0 2.1zm-1.5-6.4l-2.6-2.6 0-4.9 -4.9 0 -2.2-2.2 -9.1 9.1 2.2 2.2 0 4.9 4.8 0 2.6 2.6 2.6-2.6 3.9 0 0-3.9 2.6-2.6zm0 152.8l-2.6-2.6 0-3.9 -3.9 0 -2.6-2.6 -2.6 2.6 -4.9 0 0 4.9 -2.2 2.2 9.1 9.1 2.2-2.2 4.9 0 0-4.9 2.6-2.6zm-2.6 16.8l0-5.2 -3.1 0 -1 1 4.2 4.2zm0-27.4l0-4.9 -3.5 3.5 1.4 1.4 2.2 0zm0-10.8l0-8.3 -7.7-3.2 -6.2 2.6 0 7.9 7.5 7.5 6.5-6.4zm0-19.2l0-6.8 -4.8-4.8 -7.7 3.2 -3.4 8.3 8.3 3.4 7.7-3.2zm0-64.8l0-6.8 -7.7-3.2 -8.3 3.4 3.4 8.3 7.7 3.2 4.9-4.8zm0-17.7l0-8.3 -6.5-6.5 -7.5 7.5 0 7.9 6.2 2.6 7.7-3.2zm0-14.2l0-4.9 -2.1 0 -1.4 1.4 3.5 3.5zm0-27.1l0-5.2 -4.2 4.2 1 1 3.2 0zm-0.5-31.6l-47.9 0 -1.2 1.2 0 48a10.1 10.1 0 0 1 0.7-1.8 8.5 8.5 0 0 1 2.3-2.8 15.8 15.8 0 0 1 1.3-0.9 7.5 7.5 0 0 1-1.5-2.2 6.2 6.2 0 0 1 0-3.1 7.5 7.5 0 0 1 1-2.6 3.9 3.9 0 0 1 1.9-1.6 5 5 0 0 1 1.4-0.2 8.3 8.3 0 0 0 0.1 2.3 5.4 5.4 0 0 0 1.7 2.7 5.7 5.7 0 0 0 3.2 1.5c1.8 0.2 3.5-0.8 5-2.1a13.2 13.2 0 0 0 2.4-2.6l2.6 1.3a34 34 0 0 1-2.4 3.3 22.7 22.7 0 0 1-5.9 5.5c-1.3 0.8-2.8 1.4-4.2 2.2a14.4 14.4 0 0 0-5.4 6.2 10.9 10.9 0 0 0-1.1 4.4 7.3 7.3 0 0 0 0.2 1.8c0 0.1 0.1 0.2 0.1 0.4l27.6-27.6a4.7 4.7 0 0 1-1.1-0.2 3.7 3.7 0 0 1-2-1.6 5.8 5.8 0 0 1-0.5-1.7l-0.6 0 0.2-2.6 -0.9-3.1 -1.8-0.4 0.5-2.4 2.6-1.4a14.5 14.5 0 0 0 1 1.5 16.3 16.3 0 0 0 4.4-0.2 10.7 10.7 0 0 0 5.6-3.9c1.2-1.5 2.2-3.2 2.1-5a5.7 5.7 0 0 0-1.5-3.2 5.3 5.3 0 0 0-2.7-1.7 8.7 8.7 0 0 0-2.3-0.1 5 5 0 0 1 0.2-1.4 3.8 3.8 0 0 1 1.7-1.9 7.7 7.7 0 0 1 2.6-1 6.1 6.1 0 0 1 3.1 0 7 7 0 0 1 2.2 1.5c0.3-0.4 0.6-0.9 0.9-1.3a8.5 8.5 0 0 1 2.8-2.3 9.7 9.7 0 0 1 1.9-0.7l0 0zm-47.9 239.2l47.9 0a9.7 9.7 0 0 1-1.8-0.7 8.5 8.5 0 0 1-2.8-2.3c-0.3-0.4-0.6-0.8-0.9-1.3a7 7 0 0 1-2.2 1.5 6.1 6.1 0 0 1-3.1 0 7.7 7.7 0 0 1-2.5-1 3.8 3.8 0 0 1-1.6-1.9 5 5 0 0 1-0.2-1.4 8.7 8.7 0 0 0 2.3-0.1 5.3 5.3 0 0 0 2.7-1.7 5.7 5.7 0 0 0 1.5-3.2c0.2-1.7-0.8-3.5-2.1-5a10.7 10.7 0 0 0-5.6-3.9 16.3 16.3 0 0 0-4.4-0.2 14.5 14.5 0 0 0-1 1.5l-2.6-1.4 -0.5-2.4 1.8-0.4 0.9-3.1 -0.2-2.6 0.6 0a5.8 5.8 0 0 1 0.5-1.7 3.7 3.7 0 0 1 2-1.6 4.7 4.7 0 0 1 1.1-0.2l-27.6-27.6c0 0.1-0.1 0.2-0.1 0.4a7.3 7.3 0 0 0-0.2 1.8 10.9 10.9 0 0 0 1.1 4.4 14.4 14.4 0 0 0 5.4 6.2c1.4 0.8 2.9 1.4 4.2 2.2a22.7 22.7 0 0 1 5.9 5.5 34 34 0 0 1 2.4 3.3l-2.6 1.3a13.2 13.2 0 0 0-2.4-2.6c-1.5-1.2-3.2-2.2-5-2.1a5.7 5.7 0 0 0-3.2 1.5 5.4 5.4 0 0 0-1.7 2.7 8.3 8.3 0 0 0-0.1 2.3 5 5 0 0 1-1.4-0.2 3.9 3.9 0 0 1-1.9-1.6 7.5 7.5 0 0 1-1-2.6 6.2 6.2 0 0 1 0-3.1 7.5 7.5 0 0 1 1.5-2.2 15.8 15.8 0 0 1-1.3-0.9 8.5 8.5 0 0 1-2.3-2.8 10.1 10.1 0 0 1-0.7-1.8l0 47.9 1.3 1.2zm42.7-119.6l-2.6-6.4 -8.3 0 -6.4 6.4 6.4 6.4 8.3 0 2.7-6.4zm-8.2-59.9l4.5-4.5 -1.4-1.4 -3.1 0 0 5.9zm4.5 124.3l-4.5-4.5 0 5.9 3.2 0 1.4-1.4zm-3.1-80.9l-3.2-7.7 -6.2-2.6 -5.6 5.6 0 10.6 9.1 0 5.9-5.9zm-3.2 40.6l3.2-7.7 -5.9-5.8 -9.2 0 0 10.6 5.6 5.6 6.2-2.6zm-5.7-62l8.3-3.4 -5-2 0-6.6 -9.4 9.4 0 13.4 4.7-4.6 5 2.1 -3.4-8.3zm3.3 81.2l5-2 -8.3-3.4 3.4-8.3 -4.9 2 -4.6-4.6 0 13.4 9.5 9.5 0-6.6zm0 29.8l0-3.1 -5.2 0 4.2 4.2 1-1zm0-7.3l0-10.1 -13.6-13.6 0-19.3 -7.1-7.1 -6.6 6.6 0 25.5 18 18 9.4 0zm0-121.6l0-10.1 -9.3 0 -18 18 0 25.5 6.6 6.6 7.1-7.1 0-19.3 13.6-13.6zm0-14.2l0-3.1 -1-1 -4.2 4.2 5.2 0zm-8 67l3.5-3.5 -5 0 0 2 1.5 1.5zm-1.5 9.3l5 0 -3.5-3.4 -1.5 1.5 0 1.9zm-4.1-3.7l2.7-2.7 -2.7-2.7 0-3.6 -3.7 0 -3.4-3.4 -3.4 3.5 -3.2 0 0 12.8 3.2 0 3.4 3.5 3.4-3.4 3.7 0 0-3.7zm0 14.2l0-6.3 -2 0 -2.2 2.2 4.2 4.1zm0-27.5l0-6.4 -4.2 4.2 2.2 2.2 2 0zm-12.3 0l2.2-2.2 -3.7-3.7 0 5.9 1.5 0zm-1.4 27l3.7-3.7 -2.2-2.2 -1.4 0 0 5.9zm-4.2-71.8l2.7-2.7a3.9 3.9 0 0 1-0.7-0.4 5.6 5.6 0 0 1-1.9-3.2l0 6.3zm2.7 113.3l-2.7-2.7 0 6.3a5.6 5.6 0 0 1 1.9-3.2 3.9 3.9 0 0 1 0.8-0.4l0 0zm-6.8-12.6l0-3.8a4.2 4.2 0 0 1-0.8 0.3 5.6 5.6 0 0 1-3.6-0.9l4.4 4.5zm0-4.9l0-39a4.3 4.3 0 0 1-0.9 0.6 3.7 3.7 0 0 1-2.5 0.3 5.9 5.9 0 0 1-1.6-0.9l-0.5 0.4 -1.7-2 1.7-1.9 0.5 0.4a5.9 5.9 0 0 1 1.6-0.9 3.7 3.7 0 0 1 2.5 0.3 4.3 4.3 0 0 1 0.9 0.6l0-39 -0.3 0.2a7.8 7.8 0 0 0-1.4 1.1 10.9 10.9 0 0 0-2.3 3.9 14.5 14.5 0 0 0-0.5 8.2c0.4 1.6 1 3 1.4 4.5a22.5 22.5 0 0 1 0.3 8.1 30 30 0 0 1-0.9 5l-2.8-0.6a12.2 12.2 0 0 0 0.4-4.9c-0.2-1.9-0.7-3.9-2.1-5a5.7 5.7 0 0 0-3.4-1.2 5.4 5.4 0 0 0-3.1 0.8 8.2 8.2 0 0 0-1.7 1.6 5.2 5.2 0 0 1-0.9-1.1 3.9 3.9 0 0 1-0.2-2.5 7.5 7.5 0 0 1 1.1-2.5 6.1 6.1 0 0 1 2.2-2.2 7.4 7.4 0 0 1 2.6-0.5c-0.1-0.5-0.2-1-0.3-1.5a8.5 8.5 0 0 1 0.4-3.6 9.8 9.8 0 0 1 0.8-1.8l-33.8 33.9 0 1.8 33.9 33.9a9.8 9.8 0 0 1-0.8-1.8 8.5 8.5 0 0 1-0.4-3.6c0.1-0.5 0.2-1 0.3-1.5a7.4 7.4 0 0 1-2.6-0.5 6.1 6.1 0 0 1-2.2-2.2 7.5 7.5 0 0 1-1.1-2.5 3.9 3.9 0 0 1 0.2-2.5 5.2 5.2 0 0 1 0.9-1.1 8.2 8.2 0 0 0 1.7 1.6 5.4 5.4 0 0 0 3.1 0.8 5.7 5.7 0 0 0 3.4-1.2c1.3-1.1 1.9-3.1 2.1-5a12.2 12.2 0 0 0-0.4-4.9l2.8-0.6a30 30 0 0 1 0.9 5 22.5 22.5 0 0 1-0.3 8.1c-0.4 1.5-1 3-1.4 4.5a14.5 14.5 0 0 0 0.6 8.2 10.9 10.9 0 0 0 2.3 3.9 7.8 7.8 0 0 0 1.4 1.1l0.3 0.1zm0-82.2l0-3.8 -4.4 4.4a5.6 5.6 0 0 1 3.6-0.9 4.2 4.2 0 0 1 0.9 0.3l0 0z" class="a"/><path d="m345.4 174.5l0 1.8a10.3 10.3 0 0 1-2.6 1.5 3.6 3.6 0 0 1-3.1 0 3.9 3.9 0 0 1-0.8-0.8l-1 0a36.2 36.2 0 0 1-2.7 3.4 14.7 14.7 0 0 1-7.5 4.5 20.8 20.8 0 0 1-6.7-0.2 2.5 2.5 0 0 1 1.2 1.6 5.7 5.7 0 0 1-0.8 4.3 5.2 5.2 0 0 1-3.2 2.2 6.8 6.8 0 0 1-1.1 0.3 5.8 5.8 0 0 1-3.5-0.8 5 5 0 0 1-2.2-3.2 4.7 4.7 0 0 1 0.9-3.9 7.5 7.5 0 0 1 2.2-1.6c0 0.8 0 1.6 0.5 1.9a1.4 1.4 0 0 0 1.3-0.2 1.4 1.4 0 0 0 0.5-1.3 2.4 2.4 0 0 0-0.8-1.3 6 6 0 0 0-2.1-1.3 10.6 10.6 0 0 0-2.9-0.8 16 16 0 0 0-3 3.2 8.6 8.6 0 0 0-0.8 1.8l-2.8-0.6a15 15 0 0 1 1.1-2.7 11.2 11.2 0 0 1 2.6-3.3c-0.6-0.5-1.3-1.1-1.9-1.7l1.7-2 2.8 1.6 2.5-1.6 -2.5-1.6 -2.8 1.6 -1.7-1.9c0.6-0.6 1.3-1.1 1.9-1.7a11.2 11.2 0 0 1-2.6-3.3 15 15 0 0 1-1.1-2.7l2.8-0.6a8.6 8.6 0 0 0 0.8 1.8 16 16 0 0 0 3 3.2 10.6 10.6 0 0 0 2.9-0.8 6 6 0 0 0 2.1-1.3 2.4 2.4 0 0 0 0.8-1.3 1.4 1.4 0 0 0-0.5-1.3 1.4 1.4 0 0 0-1.3-0.2c-0.5 0.3-0.5 1.1-0.5 1.9a7.5 7.5 0 0 1-2.2-1.6 4.7 4.7 0 0 1-0.9-3.9 5 5 0 0 1 2.2-3.2 5.8 5.8 0 0 1 3.5-0.8 6.8 6.8 0 0 1 1.1 0.2 5.2 5.2 0 0 1 3.2 2.2 5.7 5.7 0 0 1 0.8 4.3 2.5 2.5 0 0 1-1.2 1.6 20.8 20.8 0 0 1 6.7-0.2 14.7 14.7 0 0 1 7.5 4.5 36.2 36.2 0 0 1 2.7 3.4l1 0a3.9 3.9 0 0 1 0.8-0.8 3.6 3.6 0 0 1 3.1 0 10.3 10.3 0 0 1 2.6 1.5zm-12.5 0.9a36.9 36.9 0 0 0-3.1-2.3 12.7 12.7 0 0 0-4.9-2.1 17.5 17.5 0 0 0-6.6 0.6c-1.5 0.4-3 0.7-4.5 1.1 0.8 0.3 1.7 0.7 2.5 1a14.2 14.2 0 0 0 4.5 0.8 7.8 7.8 0 0 0 3.7-0.9 9.5 9.5 0 0 0 1-0.6l0 4.8a9.5 9.5 0 0 0-1-0.6 7.8 7.8 0 0 0-3.7-0.9 14.2 14.2 0 0 0-4.5 0.8c-0.8 0.3-1.7 0.6-2.5 1 1.5 0.4 3 0.8 4.5 1.1a17.5 17.5 0 0 0 6.6 0.6 12.7 12.7 0 0 0 4.9-2.1 36.9 36.9 0 0 0 3.1-2.4z" class="a"/><path d="m294.1 56.1l2.7 0.9a10.5 10.5 0 0 1-0.8 2.9c-0.5 1-1.2 2-2.1 2.2a4 4 0 0 1-1.1 0l-0.7 0.7a38.7 38.7 0 0 1 0.5 4.3 14.7 14.7 0 0 1-2.1 8.5 21.2 21.2 0 0 1-4.9 4.6 2.5 2.5 0 0 1 1.9 0.3 5.7 5.7 0 0 1 2.5 3.6 5.2 5.2 0 0 1-0.7 3.8 6 6 0 0 1-3.7 2.8 5 5 0 0 1-3.8-0.7 4.7 4.7 0 0 1-2.1-3.4 7.6 7.6 0 0 1 0.4-2.7c0.6 0.6 1.1 1.1 1.7 0.9a1.4 1.4 0 0 0 0.8-1 1.4 1.4 0 0 0-0.5-1.3 2.3 2.3 0 0 0-1.5-0.3 5.8 5.8 0 0 0-2.4 0.5 10.7 10.7 0 0 0-2.6 1.5 15.9 15.9 0 0 0 0.2 4.4 7.9 7.9 0 0 0 0.6 1.6l-2.7 1a13.4 13.4 0 0 1-0.7-1.8 11.4 11.4 0 0 1-0.5-4.1l-2.5 0.2 -0.2-2.6 3.1-0.9 0.7-2.9 -1.1 0.2 -0.5-2.4c0.8-0.3 1.7-0.7 2.5-1.1a14.2 14.2 0 0 0 3.7-2.6 7.9 7.9 0 0 0 2-3.3 11.4 11.4 0 0 0 0.3-1.2l3.4 3.4a9 9 0 0 0-1.2 0.2 7.9 7.9 0 0 0-3.2 2.1 14.2 14.2 0 0 0-2.6 3.7c-0.4 0.8-0.7 1.6-1.1 2.5 1.3-0.8 2.7-1.6 4-2.4a17.6 17.6 0 0 0 5.1-4.2 13 13 0 0 0 2-4.9 38.2 38.2 0 0 0 0.5-3.8 35.7 35.7 0 0 0-3.8 0.5 12.8 12.8 0 0 0-4.9 2 17.2 17.2 0 0 0-4.2 5.1c-0.8 1.3-1.5 2.5-2.3 3.8l-2.5-1.5c0.1-0.3 0.3-0.5 0.4-0.8a6.1 6.1 0 0 0 0.5-2.4 2.4 2.4 0 0 0-0.3-1.5 1.4 1.4 0 0 0-1.3-0.5 1.4 1.4 0 0 0-1 0.8c-0.1 0.5 0.4 1.1 1 1.7a7.7 7.7 0 0 1-2.7 0.5 4.7 4.7 0 0 1-3.4-2.1 5 5 0 0 1-0.7-3.8 5.7 5.7 0 0 1 1.9-2.9 6.3 6.3 0 0 1 1-0.7 5.2 5.2 0 0 1 3.8-0.7 5.7 5.7 0 0 1 3.6 2.5 2.5 2.5 0 0 1 0.3 1.9 20.4 20.4 0 0 1 4.6-4.9 14.6 14.6 0 0 1 8.5-2.1 34.6 34.6 0 0 1 4.3 0.5l0.7-0.7a4 4 0 0 1 0-1.1 3.6 3.6 0 0 1 2.2-2.1 8.4 8.4 0 0 1 1.4-0.6z" class="a"/><path d="m296.7 293.7l-2.7 0.9a8.4 8.4 0 0 1-1.4-0.5 3.6 3.6 0 0 1-2.2-2.1 4 4 0 0 1 0-1.1l-0.7-0.7a34.6 34.6 0 0 1-4.3 0.5 14.6 14.6 0 0 1-8.5-2.1 20.4 20.4 0 0 1-4.6-4.9 2.5 2.5 0 0 1-0.3 1.9 5.7 5.7 0 0 1-3.6 2.5 5.2 5.2 0 0 1-3.8-0.7 6.3 6.3 0 0 1-0.9-0.7 5.7 5.7 0 0 1-1.9-2.9 5 5 0 0 1 0.7-3.8 4.7 4.7 0 0 1 3.4-2.1 7.7 7.7 0 0 1 2.7 0.5c-0.5 0.6-1.1 1.1-0.9 1.7a1.4 1.4 0 0 0 1 0.8 1.4 1.4 0 0 0 1.3-0.5 2.4 2.4 0 0 0 0.3-1.5 6.1 6.1 0 0 0-0.5-2.4c-0.1-0.2-0.2-0.5-0.3-0.8l2.5-1.5c0.8 1.3 1.5 2.5 2.3 3.8a17.2 17.2 0 0 0 4.3 5.1 12.8 12.8 0 0 0 4.9 2 35.7 35.7 0 0 0 3.8 0.5 38.2 38.2 0 0 0-0.5-3.8 13 13 0 0 0-2-4.9 17.6 17.6 0 0 0-5.1-4.2c-1.3-0.8-2.7-1.6-4-2.4 0.3 0.8 0.7 1.7 1.1 2.5a14.2 14.2 0 0 0 2.6 3.7 7.9 7.9 0 0 0 3.3 2.1 9 9 0 0 0 1.2 0.2c-0.5 0.5-1.1 1.1-3.4 3.4a11.4 11.4 0 0 0-0.2-1.2 7.9 7.9 0 0 0-2-3.3 14.2 14.2 0 0 0-3.7-2.6c-0.8-0.4-1.6-0.7-2.4-1.1l0.5-2.4 1.1 0.2 -0.7-2.9 -3.1-0.9 0.2-2.6 2.5 0.2a11.4 11.4 0 0 1 0.5-4.1 13.4 13.4 0 0 1 0.7-1.8l2.7 1a7.9 7.9 0 0 0-0.5 1.6 15.9 15.9 0 0 0-0.2 4.4 10.7 10.7 0 0 0 2.6 1.5 5.8 5.8 0 0 0 2.4 0.5 2.3 2.3 0 0 0 1.5-0.3 1.4 1.4 0 0 0 0.5-1.3 1.4 1.4 0 0 0-0.8-1c-0.5-0.2-1.1 0.4-1.7 0.9a7.6 7.6 0 0 1-0.4-2.7 4.7 4.7 0 0 1 2.1-3.4 5 5 0 0 1 3.8-0.7 6 6 0 0 1 3.7 2.8 5.2 5.2 0 0 1 0.7 3.8 5.7 5.7 0 0 1-2.5 3.6 2.5 2.5 0 0 1-1.9 0.3 21.2 21.2 0 0 1 4.9 4.6 14.7 14.7 0 0 1 2.1 8.5 38.7 38.7 0 0 1-0.5 4.3l0.7 0.7a4 4 0 0 1 1.2 0c1 0.2 1.7 1.2 2.2 2.2a10.5 10.5 0 0 1 0.8 2.8z" class="a"/><path d="m194.7 35.4a5.8 5.8 0 0 1-0.8 3.5 5 5 0 0 1-3.2 2.2 4.8 4.8 0 0 1-3.9-0.9 7.5 7.5 0 0 1-1.6-2.2c0.8 0 1.6 0 1.8-0.5a1.3 1.3 0 0 0-0.1-1.3 1.4 1.4 0 0 0-1.3-0.5 2.4 2.4 0 0 0-1.3 0.8 6.1 6.1 0 0 0-1.3 2 11.2 11.2 0 0 0-0.7 2.9 16.3 16.3 0 0 0 3.2 3 8.2 8.2 0 0 0 1.2 0.6l-0.9 2.7a12.4 12.4 0 0 1-1.8-0.8 11.4 11.4 0 0 1-3.3-2.5l-1.7 1.9 -1.9-1.7 1.6-2.8 -1.6-2.5 -1.6 2.5 1.6 2.8 -1.9 1.7 -1.7-1.9a11.3 11.3 0 0 1-3.3 2.6 12.8 12.8 0 0 1-1.8 0.8l-0.9-2.7a8.7 8.7 0 0 0 1.2-0.6 16.6 16.6 0 0 0 3.2-3 10.7 10.7 0 0 0-0.8-2.9 5.9 5.9 0 0 0-1.3-2 2.4 2.4 0 0 0-1.3-0.8 1.4 1.4 0 0 0-1.3 0.6 1.3 1.3 0 0 0-0.1 1.3c0.3 0.5 1.1 0.5 1.8 0.5a7.5 7.5 0 0 1-1.6 2.2 4.8 4.8 0 0 1-3.9 0.9 5 5 0 0 1-3.2-2.2 5.8 5.8 0 0 1-0.8-3.5 6.8 6.8 0 0 1 0.2-1.1 5.2 5.2 0 0 1 2.2-3.2 5.7 5.7 0 0 1 4.4-0.8 2.5 2.5 0 0 1 1.6 1.2 20.8 20.8 0 0 1-0.2-6.7 14.7 14.7 0 0 1 4.5-7.5 35.2 35.2 0 0 1 3.4-2.7l0-1a3.7 3.7 0 0 1-0.8-0.8 3.6 3.6 0 0 1 0-3.1 10.6 10.6 0 0 1 1.5-2.6l1.8 0a10.6 10.6 0 0 1 1.5 2.6 3.6 3.6 0 0 1 0 3.1 3.7 3.7 0 0 1-0.8 0.8l0 1a36.5 36.5 0 0 1 3.4 2.7 14.6 14.6 0 0 1 4.5 7.5 20.5 20.5 0 0 1-0.2 6.7 2.5 2.5 0 0 1 1.6-1.2 5.7 5.7 0 0 1 4.4 0.8 5.2 5.2 0 0 1 2.2 3.2 6.8 6.8 0 0 1 0.2 1.1zm-13.8-1.2a17.5 17.5 0 0 0 0.6-6.6 12.8 12.8 0 0 0-2.1-4.9 35.3 35.3 0 0 0-2.3-3 37.3 37.3 0 0 0-2.3 3 12.8 12.8 0 0 0-2.1 4.9 17.3 17.3 0 0 0 0.6 6.6c0.4 1.5 0.7 3 1.1 4.6 0.3-0.8 0.7-1.7 1-2.5a14 14 0 0 0 0.8-4.5 7.9 7.9 0 0 0-0.8-3.7 9.4 9.4 0 0 0-0.6-1l4.8 0a9.4 9.4 0 0 0-0.6 1 7.9 7.9 0 0 0-0.8 3.8 13.7 13.7 0 0 0 0.8 4.5c0.3 0.8 0.6 1.7 1 2.5 0.3-1.5 0.7-3 1-4.5z" class="a"/><path d="m193.9 311.9a5.8 5.8 0 0 1 0.8 3.5 6.8 6.8 0 0 1-0.2 1.1 5.2 5.2 0 0 1-2.2 3.2 5.7 5.7 0 0 1-4.3 0.8 2.5 2.5 0 0 1-1.6-1.2 20.5 20.5 0 0 1 0.2 6.7 14.6 14.6 0 0 1-4.5 7.5 36.5 36.5 0 0 1-3.4 2.7l0 1a3.7 3.7 0 0 1 0.8 0.8 3.6 3.6 0 0 1 0 3.1 10.6 10.6 0 0 1-1.5 2.6l-1.7 0a10.6 10.6 0 0 1-1.5-2.6 3.6 3.6 0 0 1 0-3.1 3.7 3.7 0 0 1 0.8-0.8l0-1a35.2 35.2 0 0 1-3.4-2.7 14.7 14.7 0 0 1-4.5-7.5 20.8 20.8 0 0 1 0.2-6.7 2.5 2.5 0 0 1-1.6 1.2 5.7 5.7 0 0 1-4.3-0.8 5.2 5.2 0 0 1-2.2-3.2 6.8 6.8 0 0 1-0.2-1.1 5.8 5.8 0 0 1 0.8-3.5 5 5 0 0 1 3.2-2.2 4.8 4.8 0 0 1 3.9 0.9 7.5 7.5 0 0 1 1.6 2.2c-0.8 0-1.6 0-1.8 0.5a1.3 1.3 0 0 0 0.2 1.3 1.4 1.4 0 0 0 1.3 0.6 2.4 2.4 0 0 0 1.3-0.8 5.9 5.9 0 0 0 1.3-2 10.7 10.7 0 0 0 0.8-2.9 16.6 16.6 0 0 0-3.2-3 8.7 8.7 0 0 0-1.2-0.6l0.9-2.7a12.8 12.8 0 0 1 1.8 0.8 11.3 11.3 0 0 1 3.3 2.6l1.7-1.9 1.9 1.7 -1.6 2.8 1.6 2.5 1.6-2.5 -1.6-2.8 1.9-1.7 1.7 1.9a11.4 11.4 0 0 1 3.3-2.5 12.4 12.4 0 0 1 1.8-0.8l0.9 2.7a8.2 8.2 0 0 0-1.2 0.6 16.3 16.3 0 0 0-3.2 3 11.2 11.2 0 0 0 0.8 2.9 6.1 6.1 0 0 0 1.3 2 2.4 2.4 0 0 0 1.3 0.8 1.4 1.4 0 0 0 1.3-0.5 1.3 1.3 0 0 0 0.2-1.3c-0.3-0.5-1.1-0.5-1.8-0.5a7.5 7.5 0 0 1 1.6-2.2 4.8 4.8 0 0 1 3.9-0.9 5 5 0 0 1 3.1 2.2zm-12.4 11.3a17.5 17.5 0 0 0-0.6-6.6c-0.3-1.5-0.7-3-1.1-4.5 -0.3 0.8-0.7 1.7-1 2.5a13.7 13.7 0 0 0-0.7 4.5 7.9 7.9 0 0 0 0.9 3.8 9.4 9.4 0 0 0 0.7 1l-4.8 0a9.4 9.4 0 0 0 0.7-1 7.9 7.9 0 0 0 0.9-3.7 14 14 0 0 0-0.8-4.5c-0.3-0.8-0.6-1.7-1-2.5 -0.4 1.5-0.8 3-1.1 4.6a17.3 17.3 0 0 0-0.6 6.6 12.8 12.8 0 0 0 2.1 4.9 37.3 37.3 0 0 0 2.3 3 35.3 35.3 0 0 0 2.4-3 12.8 12.8 0 0 0 2.1-4.9z" class="a"/><path d="m92.5 67a5 5 0 0 1-0.7 3.8 4.7 4.7 0 0 1-3.4 2.1 7.6 7.6 0 0 1-2.7-0.4c0.6-0.6 1.1-1.1 0.9-1.7a1.3 1.3 0 0 0-1-0.8 1.4 1.4 0 0 0-1.3 0.5 2.4 2.4 0 0 0-0.3 1.5 6.1 6.1 0 0 0 0.5 2.4 7.9 7.9 0 0 0 0.5 1.1l-2.6 1.4c-0.8-1.3-1.6-2.7-2.4-4a17.4 17.4 0 0 0-4.2-5.1 12.9 12.9 0 0 0-4.9-2 35.7 35.7 0 0 0-3.8-0.5 38.2 38.2 0 0 0 0.5 3.8 13 13 0 0 0 2 4.9 17.6 17.6 0 0 0 5.1 4.3c1.3 0.8 2.7 1.6 4 2.4 -0.3-0.8-0.7-1.7-1.1-2.5a14.2 14.2 0 0 0-2.6-3.7 7.9 7.9 0 0 0-3.2-2 9 9 0 0 0-1.2-0.2l3.4-3.4a11.4 11.4 0 0 0 0.3 1.2 7.9 7.9 0 0 0 2 3.3 14.2 14.2 0 0 0 3.7 2.6c0.8 0.4 1.6 0.7 2.5 1.1l-0.5 2.4 -1.1-0.2 0.7 2.9 3.1 0.9 -0.2 2.6 -2.5-0.2a11.4 11.4 0 0 1-0.5 4.1 15.8 15.8 0 0 1-1.7 3.6l-2.6-1.3a8.8 8.8 0 0 0 1.4-3 15.9 15.9 0 0 0 0.2-4.4 10.7 10.7 0 0 0-2.6-1.5 5.9 5.9 0 0 0-2.4-0.5 2.3 2.3 0 0 0-1.5 0.4 1.4 1.4 0 0 0-0.5 1.3 1.4 1.4 0 0 0 0.8 1c0.6 0.2 1.1-0.4 1.7-0.9a7.6 7.6 0 0 1 0.4 2.7 4.8 4.8 0 0 1-2.1 3.4 5 5 0 0 1-3.8 0.7 5.7 5.7 0 0 1-2.9-1.9 6.4 6.4 0 0 1-0.7-1 5.2 5.2 0 0 1-0.7-3.8 5.7 5.7 0 0 1 2.5-3.6 2.5 2.5 0 0 1 1.9-0.3 21.2 21.2 0 0 1-4.9-4.6 14.7 14.7 0 0 1-2.1-8.5 38.7 38.7 0 0 1 0.5-4.3l-0.7-0.7a4 4 0 0 1-1.1 0c-1-0.2-1.7-1.2-2.1-2.2a10.5 10.5 0 0 1-0.8-2.9l1.2-1.2a10.2 10.2 0 0 1 2.9 0.8 3.6 3.6 0 0 1 2.2 2.1 4 4 0 0 1 0 1.2l0.7 0.7a34.6 34.6 0 0 1 4.3-0.5 14.6 14.6 0 0 1 8.5 2.1 20.4 20.4 0 0 1 4.6 4.9 2.5 2.5 0 0 1 0.3-1.9 5.7 5.7 0 0 1 3.6-2.5 5.2 5.2 0 0 1 3.8 0.7 6.1 6.1 0 0 1 2.8 3.7z" class="a"/><path d="m91.8 280a5 5 0 0 1 0.7 3.8 6.1 6.1 0 0 1-2.8 3.7 5.2 5.2 0 0 1-3.8 0.7 5.7 5.7 0 0 1-3.6-2.5 2.5 2.5 0 0 1-0.3-1.9 20.4 20.4 0 0 1-4.6 4.9 14.6 14.6 0 0 1-8.5 2.1 34.6 34.6 0 0 1-4.3-0.5l-0.7 0.7a4 4 0 0 1 0 1.2 3.6 3.6 0 0 1-2.2 2.1 10.2 10.2 0 0 1-2.9 0.8l-1.2-1.2a10.5 10.5 0 0 1 0.8-2.9c0.5-1 1.2-2 2.2-2.2a4 4 0 0 1 1.2 0l0.7-0.7a38.7 38.7 0 0 1-0.5-4.3 14.7 14.7 0 0 1 2.1-8.5 21.2 21.2 0 0 1 4.9-4.6 2.5 2.5 0 0 1-1.9-0.3 5.7 5.7 0 0 1-2.5-3.6 5.2 5.2 0 0 1 0.7-3.8 6.4 6.4 0 0 1 0.7-1 5.7 5.7 0 0 1 3-1.9 5 5 0 0 1 3.8 0.7 4.8 4.8 0 0 1 2.1 3.4 7.6 7.6 0 0 1-0.4 2.7c-0.6-0.5-1.1-1.1-1.7-0.9a1.4 1.4 0 0 0-0.8 1 1.4 1.4 0 0 0 0.5 1.3 2.3 2.3 0 0 0 1.5 0.4 5.9 5.9 0 0 0 2.4-0.5 10.7 10.7 0 0 0 2.6-1.5 15.9 15.9 0 0 0-0.2-4.4 8.8 8.8 0 0 0-1.4-3l2.6-1.3a15.8 15.8 0 0 1 1.7 3.6 11.4 11.4 0 0 1 0.5 4.1l2.5-0.2 0.2 2.6 -3.1 0.9 -0.7 2.9 1.1-0.2 0.5 2.4c-0.8 0.3-1.6 0.7-2.4 1.1a14.2 14.2 0 0 0-3.7 2.6 7.9 7.9 0 0 0-2 3.3 11.4 11.4 0 0 0-0.2 1.2l-3.4-3.4a9 9 0 0 0 1.2-0.2 7.9 7.9 0 0 0 3.3-2 14.2 14.2 0 0 0 2.6-3.7c0.4-0.8 0.7-1.6 1.1-2.5 -1.3 0.8-2.7 1.6-4 2.4a17.6 17.6 0 0 0-5.1 4.3 13 13 0 0 0-2 4.9 38.2 38.2 0 0 0-0.5 3.8 35.7 35.7 0 0 0 3.8-0.5 12.9 12.9 0 0 0 4.9-2 17.4 17.4 0 0 0 4.3-5.1c0.8-1.3 1.6-2.7 2.4-4l2.6 1.4a7.9 7.9 0 0 0-0.5 1.1 6.1 6.1 0 0 0-0.5 2.4 2.4 2.4 0 0 0 0.3 1.5 1.4 1.4 0 0 0 1.3 0.5 1.3 1.3 0 0 0 1-0.8c0.2-0.5-0.4-1.1-0.9-1.7a7.6 7.6 0 0 1 2.7-0.4 4.7 4.7 0 0 1 3.4 2.2z" class="a"/><path d="m46.9 165.2l2.8 0.6a15 15 0 0 1-1.1 2.7 11.2 11.2 0 0 1-2.6 3.3l1.9 1.7 -1.7 2 -2.8-1.6 -2.5 1.6 2.5 1.6 2.8-1.6 1.7 2 -1.9 1.6a11.2 11.2 0 0 1 2.6 3.3 15 15 0 0 1 1.1 2.7l-2.8 0.6a8.6 8.6 0 0 0-0.8-1.8 16 16 0 0 0-3-3.2 10.6 10.6 0 0 0-2.9 0.8 6 6 0 0 0-2.1 1.3 2.4 2.4 0 0 0-0.8 1.3 1.4 1.4 0 0 0 0.5 1.3 1.4 1.4 0 0 0 1.3 0.2c0.5-0.3 0.5-1.1 0.5-1.8a7.6 7.6 0 0 1 2.2 1.6 4.7 4.7 0 0 1 0.9 3.9 5 5 0 0 1-2.2 3.2 5.7 5.7 0 0 1-3.5 0.8 6.9 6.9 0 0 1-1.1-0.2 5.2 5.2 0 0 1-3.2-2.2 5.7 5.7 0 0 1-0.8-4.3 2.5 2.5 0 0 1 1.2-1.6 20.8 20.8 0 0 1-6.7 0.2 14.7 14.7 0 0 1-7.5-4.5 36.2 36.2 0 0 1-2.7-3.4l-1 0a3.9 3.9 0 0 1-0.8 0.8 3.6 3.6 0 0 1-3.1 0 10.3 10.3 0 0 1-2.6-1.5l0-1.8a10.3 10.3 0 0 1 2.6-1.5 3.6 3.6 0 0 1 3.1 0 3.9 3.9 0 0 1 0.8 0.8l1 0a36.2 36.2 0 0 1 2.7-3.4 14.7 14.7 0 0 1 7.5-4.5 20.8 20.8 0 0 1 6.7 0.2 2.5 2.5 0 0 1-1.2-1.6 5.7 5.7 0 0 1 0.8-4.3 5.2 5.2 0 0 1 3.2-2.2 6.9 6.9 0 0 1 1.1-0.2 5.7 5.7 0 0 1 3.5 0.8 5 5 0 0 1 2.2 3.2 4.7 4.7 0 0 1-0.9 3.9 7.6 7.6 0 0 1-2.2 1.6c0-0.8 0-1.6-0.5-1.8a1.4 1.4 0 0 0-1.3 0.2 1.4 1.4 0 0 0-0.5 1.3 2.4 2.4 0 0 0 0.8 1.3 6 6 0 0 0 2.1 1.3 10.6 10.6 0 0 0 2.9 0.8 16 16 0 0 0 3-3.2 8.6 8.6 0 0 0 0.8-1.8zm-8.8 8.5c0.9-0.3 1.7-0.6 2.5-1 -1.5-0.4-3-0.8-4.5-1.1a17.5 17.5 0 0 0-6.6-0.6 12.7 12.7 0 0 0-4.9 2.1 36.9 36.9 0 0 0-3.1 2.3 36.9 36.9 0 0 0 3.1 2.3 12.7 12.7 0 0 0 4.9 2.1 17.5 17.5 0 0 0 6.6-0.6c1.5-0.4 3-0.7 4.5-1.1 -0.8-0.3-1.6-0.7-2.5-1a14.2 14.2 0 0 0-4.5-0.8 7.9 7.9 0 0 0-3.7 0.9 10.5 10.5 0 0 0-1 0.7l0-4.8a10.5 10.5 0 0 0 1 0.7 7.9 7.9 0 0 0 3.8 0.9 14.2 14.2 0 0 0 4.5-0.8z" class="a"/></svg>
